<mxfile host="Electron" agent="Mozilla/5.0 (Windows NT 10.0; Win64; x64) AppleWebKit/537.36 (KHTML, like Gecko) draw.io/24.7.8 Chrome/128.0.6613.36 Electron/32.0.1 Safari/537.36" version="24.7.8">
  <diagram name="Page-1" id="UTlmj1KiUBEbwa_nLd_h">
    <mxGraphModel dx="1295" dy="1968" grid="1" gridSize="10" guides="1" tooltips="1" connect="1" arrows="1" fold="1" page="1" pageScale="1" pageWidth="1600" pageHeight="1200" math="0" shadow="0">
      <root>
        <mxCell id="0" />
        <mxCell id="1" parent="0" />
        <mxCell id="su54caKYM3iyM2nyogv_-112" value="" style="rounded=0;whiteSpace=wrap;html=1;" vertex="1" parent="1">
          <mxGeometry x="450" y="41" width="360" height="670" as="geometry" />
        </mxCell>
        <mxCell id="su54caKYM3iyM2nyogv_-97" value="" style="rounded=0;whiteSpace=wrap;html=1;" vertex="1" parent="1">
          <mxGeometry x="81.55" y="40" width="360" height="670" as="geometry" />
        </mxCell>
        <mxCell id="su54caKYM3iyM2nyogv_-11" value="" style="edgeStyle=orthogonalEdgeStyle;rounded=0;orthogonalLoop=1;jettySize=auto;html=1;flowAnimation=1;" edge="1" parent="1" source="su54caKYM3iyM2nyogv_-9" target="su54caKYM3iyM2nyogv_-10">
          <mxGeometry relative="1" as="geometry" />
        </mxCell>
        <mxCell id="su54caKYM3iyM2nyogv_-9" value="" style="shape=image;verticalLabelPosition=bottom;labelBackgroundColor=default;verticalAlign=top;aspect=fixed;imageAspect=0;image=https://upload.wikimedia.org/wikipedia/commons/thumb/c/cf/Angular_full_color_logo.svg/800px-Angular_full_color_logo.svg.png;clipPath=inset(11.67% 12.33% 7.67% 12%);" vertex="1" parent="1">
          <mxGeometry x="80" y="-787" width="50.18" height="53.5" as="geometry" />
        </mxCell>
        <mxCell id="su54caKYM3iyM2nyogv_-75" style="rounded=0;orthogonalLoop=1;jettySize=auto;html=1;entryX=0;entryY=0.5;entryDx=0;entryDy=0;flowAnimation=1;endArrow=none;endFill=0;" edge="1" parent="1" source="su54caKYM3iyM2nyogv_-10" target="su54caKYM3iyM2nyogv_-74">
          <mxGeometry relative="1" as="geometry" />
        </mxCell>
        <mxCell id="su54caKYM3iyM2nyogv_-10" value="&lt;b&gt;gawetay-service&lt;/b&gt;" style="sketch=0;outlineConnect=0;dashed=0;verticalLabelPosition=bottom;verticalAlign=top;align=center;html=1;fontSize=12;fontStyle=0;aspect=fixed;pointerEvents=1;shape=mxgraph.aws4.gateway_load_balancer;labelBackgroundColor=none;labelBorderColor=none;fillColor=#1ba1e2;strokeColor=default;" vertex="1" parent="1">
          <mxGeometry x="210" y="-796.75" width="73" height="73" as="geometry" />
        </mxCell>
        <mxCell id="su54caKYM3iyM2nyogv_-15" value="&lt;b&gt;discovery-service&lt;/b&gt;" style="rounded=1;whiteSpace=wrap;html=1;" vertex="1" parent="1">
          <mxGeometry x="403" y="-518" width="170" height="40" as="geometry" />
        </mxCell>
        <mxCell id="su54caKYM3iyM2nyogv_-16" value="" style="shape=image;verticalLabelPosition=bottom;labelBackgroundColor=default;verticalAlign=top;aspect=fixed;imageAspect=0;image=https://images.ctfassets.net/gt6dp23g0g38/5DqlQtFKecFlkqQ8YGDT2p/aa945b648f44dd872e9a1b89f7d203ef/springboot.png;" vertex="1" parent="1">
          <mxGeometry x="408" y="-514.9966666666667" width="23.546999999999997" height="21.15" as="geometry" />
        </mxCell>
        <mxCell id="su54caKYM3iyM2nyogv_-21" value="" style="edgeStyle=orthogonalEdgeStyle;rounded=0;orthogonalLoop=1;jettySize=auto;html=1;flowAnimation=1;" edge="1" parent="1" source="su54caKYM3iyM2nyogv_-18" target="su54caKYM3iyM2nyogv_-15">
          <mxGeometry relative="1" as="geometry" />
        </mxCell>
        <mxCell id="su54caKYM3iyM2nyogv_-18" value="&lt;b&gt;config-service&lt;/b&gt;" style="rounded=1;whiteSpace=wrap;html=1;" vertex="1" parent="1">
          <mxGeometry x="683" y="-518" width="170" height="40" as="geometry" />
        </mxCell>
        <mxCell id="su54caKYM3iyM2nyogv_-19" value="" style="shape=image;verticalLabelPosition=bottom;labelBackgroundColor=default;verticalAlign=top;aspect=fixed;imageAspect=0;image=https://images.ctfassets.net/gt6dp23g0g38/5DqlQtFKecFlkqQ8YGDT2p/aa945b648f44dd872e9a1b89f7d203ef/springboot.png;" vertex="1" parent="1">
          <mxGeometry x="688" y="-514.9966666666667" width="23.546999999999997" height="21.15" as="geometry" />
        </mxCell>
        <mxCell id="su54caKYM3iyM2nyogv_-69" style="edgeStyle=orthogonalEdgeStyle;rounded=0;orthogonalLoop=1;jettySize=auto;html=1;exitX=0.25;exitY=1;exitDx=0;exitDy=0;entryX=0.75;entryY=0;entryDx=0;entryDy=0;flowAnimation=1;" edge="1" parent="1" source="su54caKYM3iyM2nyogv_-22" target="su54caKYM3iyM2nyogv_-15">
          <mxGeometry relative="1" as="geometry" />
        </mxCell>
        <mxCell id="su54caKYM3iyM2nyogv_-22" value="" style="rounded=0;whiteSpace=wrap;html=1;" vertex="1" parent="1">
          <mxGeometry x="340" y="-1030" width="760" height="440" as="geometry" />
        </mxCell>
        <mxCell id="su54caKYM3iyM2nyogv_-25" style="edgeStyle=orthogonalEdgeStyle;rounded=0;orthogonalLoop=1;jettySize=auto;html=1;exitX=0.75;exitY=1;exitDx=0;exitDy=0;entryX=0.941;entryY=0.015;entryDx=0;entryDy=0;entryPerimeter=0;flowAnimation=1;" edge="1" parent="1" source="su54caKYM3iyM2nyogv_-22" target="su54caKYM3iyM2nyogv_-18">
          <mxGeometry relative="1" as="geometry">
            <Array as="points">
              <mxPoint x="843" y="-590" />
            </Array>
          </mxGeometry>
        </mxCell>
        <mxCell id="su54caKYM3iyM2nyogv_-33" value="&lt;b&gt;user-service&lt;/b&gt;" style="rounded=1;whiteSpace=wrap;html=1;container=1;" vertex="1" parent="1">
          <mxGeometry x="440.55" y="-920.75" width="158.45" height="40" as="geometry" />
        </mxCell>
        <mxCell id="su54caKYM3iyM2nyogv_-34" value="" style="shape=image;verticalLabelPosition=bottom;labelBackgroundColor=default;verticalAlign=top;aspect=fixed;imageAspect=0;image=https://images.ctfassets.net/gt6dp23g0g38/5DqlQtFKecFlkqQ8YGDT2p/aa945b648f44dd872e9a1b89f7d203ef/springboot.png;" vertex="1" parent="su54caKYM3iyM2nyogv_-33">
          <mxGeometry x="4.660294117647059" y="0.0033333333333303017" width="16.33189822718319" height="14.669369665134601" as="geometry" />
        </mxCell>
        <mxCell id="su54caKYM3iyM2nyogv_-35" value="&lt;b&gt;notification-service&lt;/b&gt;" style="rounded=1;whiteSpace=wrap;html=1;container=1;" vertex="1" parent="1">
          <mxGeometry x="827.75" y="-338" width="170" height="40" as="geometry" />
        </mxCell>
        <mxCell id="su54caKYM3iyM2nyogv_-36" value="" style="shape=image;verticalLabelPosition=bottom;labelBackgroundColor=default;verticalAlign=top;aspect=fixed;imageAspect=0;image=https://images.ctfassets.net/gt6dp23g0g38/5DqlQtFKecFlkqQ8YGDT2p/aa945b648f44dd872e9a1b89f7d203ef/springboot.png;" vertex="1" parent="su54caKYM3iyM2nyogv_-35">
          <mxGeometry x="5" y="0.0033333333333303017" width="23.546999999999997" height="21.15" as="geometry" />
        </mxCell>
        <mxCell id="su54caKYM3iyM2nyogv_-41" value="Broker" style="shape=cylinder3;whiteSpace=wrap;html=1;boundedLbl=1;backgroundOutline=1;size=15;align=center;" vertex="1" parent="1">
          <mxGeometry x="980" y="-976" width="42" height="320" as="geometry" />
        </mxCell>
        <mxCell id="su54caKYM3iyM2nyogv_-42" value="" style="shape=image;verticalLabelPosition=bottom;labelBackgroundColor=default;verticalAlign=top;aspect=fixed;imageAspect=0;image=https://static-00.iconduck.com/assets.00/kafka-icon-2048x935-cvu4503l.png;imageBorder=none;perimeterSpacing=0;" vertex="1" parent="1">
          <mxGeometry x="962.13" y="-661.5" width="77.75" height="35.5" as="geometry" />
        </mxCell>
        <mxCell id="su54caKYM3iyM2nyogv_-64" value="" style="rounded=0;orthogonalLoop=1;jettySize=auto;html=1;entryX=0;entryY=0.764;entryDx=0;entryDy=0;entryPerimeter=0;exitX=1;exitY=0.75;exitDx=0;exitDy=0;flowAnimation=1;endArrow=none;endFill=0;startArrow=classic;startFill=1;" edge="1" parent="1" source="su54caKYM3iyM2nyogv_-46" target="su54caKYM3iyM2nyogv_-41">
          <mxGeometry relative="1" as="geometry" />
        </mxCell>
        <mxCell id="su54caKYM3iyM2nyogv_-46" value="" style="rounded=0;whiteSpace=wrap;html=1;dashed=1;dashPattern=1 4;" vertex="1" parent="1">
          <mxGeometry x="421.55" y="-836" width="468.45" height="140" as="geometry" />
        </mxCell>
        <mxCell id="su54caKYM3iyM2nyogv_-67" style="edgeStyle=orthogonalEdgeStyle;rounded=0;orthogonalLoop=1;jettySize=auto;html=1;entryX=0;entryY=0.5;entryDx=0;entryDy=0;shape=link;flowAnimation=1;" edge="1" parent="1" source="su54caKYM3iyM2nyogv_-47" target="su54caKYM3iyM2nyogv_-53">
          <mxGeometry relative="1" as="geometry" />
        </mxCell>
        <mxCell id="su54caKYM3iyM2nyogv_-47" value="&lt;b&gt;catalog-query-service&lt;/b&gt;" style="rounded=1;whiteSpace=wrap;html=1;container=1;" vertex="1" parent="1">
          <mxGeometry x="441.55" y="-817.5" width="228.45" height="40" as="geometry" />
        </mxCell>
        <mxCell id="su54caKYM3iyM2nyogv_-48" value="" style="shape=image;verticalLabelPosition=bottom;labelBackgroundColor=default;verticalAlign=top;aspect=fixed;imageAspect=0;image=https://images.ctfassets.net/gt6dp23g0g38/5DqlQtFKecFlkqQ8YGDT2p/aa945b648f44dd872e9a1b89f7d203ef/springboot.png;" vertex="1" parent="su54caKYM3iyM2nyogv_-47">
          <mxGeometry x="6.719117647058823" y="0.0033333333333303017" width="23.546999999999997" height="21.15" as="geometry" />
        </mxCell>
        <mxCell id="su54caKYM3iyM2nyogv_-63" value="" style="rounded=0;orthogonalLoop=1;jettySize=auto;html=1;entryX=0;entryY=0.5;entryDx=0;entryDy=0;shape=link;flowAnimation=1;" edge="1" parent="1" source="su54caKYM3iyM2nyogv_-49" target="su54caKYM3iyM2nyogv_-61">
          <mxGeometry relative="1" as="geometry">
            <mxPoint x="750" y="-735" as="targetPoint" />
          </mxGeometry>
        </mxCell>
        <mxCell id="su54caKYM3iyM2nyogv_-49" value="&lt;b&gt;catalog-command-service&lt;/b&gt;" style="rounded=1;whiteSpace=wrap;html=1;container=1;" vertex="1" parent="1">
          <mxGeometry x="441.55" y="-755" width="228.45" height="40" as="geometry" />
        </mxCell>
        <mxCell id="su54caKYM3iyM2nyogv_-50" value="" style="shape=image;verticalLabelPosition=bottom;labelBackgroundColor=default;verticalAlign=top;aspect=fixed;imageAspect=0;image=https://images.ctfassets.net/gt6dp23g0g38/5DqlQtFKecFlkqQ8YGDT2p/aa945b648f44dd872e9a1b89f7d203ef/springboot.png;" vertex="1" parent="su54caKYM3iyM2nyogv_-49">
          <mxGeometry x="6.719117647058823" y="0.0033333333333303017" width="23.546999999999997" height="21.15" as="geometry" />
        </mxCell>
        <mxCell id="su54caKYM3iyM2nyogv_-53" value="" style="shape=image;verticalLabelPosition=bottom;labelBackgroundColor=default;verticalAlign=top;aspect=fixed;imageAspect=0;image=data:image/png,iVBORw0KGgoAAAANSUhEUgAABAAAAAERCAYAAADlr9UaAACAAElEQVR42uz9C3gkV3nnj7/vqVaPRtaMZXnuI6k18jA4xut4Ha9DDDjGGHCMYQkhkBjMJVkebgt5EpYlLCF+vPxZlvU/IWyuJGEJtoFdMJhw9RKDgRDHeAn2eh1nMPbMqCXPjGcGMdZoNJpW93l/p1p9OVV1qrpa6pZa3d+Prenuupw6dep9z3nft85FEQAAAAAAAAAAALoeBAAAAAAAAAAAAAAEAAAAAAAAAAAAAIAAAAAAAAAAAAAAABAAAAAAAAAAAAAAAAIAAAAAAAAAAAAAQAAAAAAAAAAAAAAACAAAAAAAAAAAAAAAAQAAAAAAAAAAAAAgAAAAAAAAAAAAACAAAAAAAAAAAAAAAAQAAAAAAAAAAAAAgAAAAAAAAAAAAAAAEAAAAAAAAAAAAAAAAgAAAAAAAAAAAABAAAAAAAAAAAAAAAAIAAAAAAAAAAAAAAABAAAAAAAAAAAAAAEAAAAAAAAAAAAAIAAAAAAAAAAAAAAABAAAAAAAAAAAAACAAAAAAAAAAAAAAAAQAAAAAAAAAAAAAAACAAAAAAAAAAAAAEAAAAAAAAAAAAAAAAgAAAAAAAAAAAAACACgCAAAAAAAAAAAAAQAAAAAAAAAAAAAgAAAAAAAAAAAAAAAEAAAAAAAAAAAAAAAAgAAAAAAAAAAAABAAAAAAAAAAAAAAAAIAAAAAAAAAAAAAAABAAAAAAAAAAAAACAAAAAAAAAAAAAAIAAAAAAAAAAAAAAABAAAAAAAAAAAAACAAAAAAAAAAAAAAAAQAAAAAAAAAAAAAAACAAAAAAAAAAAAAEAAAAAAAAAAAAAAAAgAAAAAAAAAAAAAAAEAAAAAAAAAAAAAAQAAAAAAAAAAAAAgAAAAAAAAAAAAAAAEAAAAAAAAAAAAAIAAAAAAAAAAAAAAABAAAAAAAAAAAAAAAAIAAAAAAAAAAAAAQAAAAAAAAAAAAAAACAAAAAAAAAAAAAAIAAAAAAAAAAAAAAABAAAAAAAAAAAAAKx/MiiC3uTYvVsHPSoNKfK2MPEWFh7WQgOKeYBYKZHSAJFXPlZIFki0ZqZ5FponxSeLWmaUomNECyf/6NtPz95yC2mUKgAAAAAAAAB0Lowi6F7++bOU3Xnezh3kycVK6CJm9TPGnZ8wDvyE+RwyhwyK8LJ7gTCLJj8gwDRrPvMi9DiL/EiYHl3UxUfmpk7k97yRFvAkAAAAAAAAAAABANBCjn1262B2i7qCiZ9rnPyfF5FLidQu/x2+/7//tEXihaB8SFgiJHiQfT6Hz5GwRMkMMz9itj+gif7hDNH3dj3/yAk8KQAAAAAAAABAAAA0gf+Gf/vWHZf0EV1nHPMXm8d5ufHG+8OeujgeNYe8fKm5865juB4AoPBh0XMkGB6w9knR/POoydo9mktfPzvn3bfrpUfm8SQBAAAAAAAAAAEAEOLgvdR/nmy/klj9KjNdL8Jj0aOqr/urT9nvAcCWhy51p77mo4df31tpuM4JevvJadR+ylJ3geo5SmbMv/eY7Z8rnSl84/zrZ2bxhAEAAAAAAAAAAYCe5uQ3d15GnrzeOM+vNI9tV90xt53xupMvEn4PHw4AhM+3XvGz1H312qEclJjyAbaf3+B888PPE3MwFlA9x+w9KYq+VtL8yf/+nSP3YFJBAAAAAAAAAEAAoGf46b3nDinZeKMmfpNxwC8ly1+3nfeaH13bVo8OcMULDwwDqBzHlU8JRgoqDrkVSKh68hWPnSvfA/sqvQNYwoMCrPiCcx6Ceh7LYYClZPIi+uNSOvs3wy/8aR6SAAAAAAAAAAAIAHQlx+7duncDe+8wrvFrjUc8HDnA7pYfePNOwV73kuIJJx0Tl1bgnNBQgfD5RK7pAFJdi0kviKgvlrj40f/+7WMPoFcAAAAAAAAAACAA0BXM3Lv9YkX8PvNYXmH+srZTX+tl38jBjwkK1M8P7Q9JwVI3/aTz3devnRfYb435bxBIEKtHQj0msJSmv9yg1vJdZv3BoecfuweSAgAAAAAAAAAIAKxLfvrNbZeQ4vczq1cYR1gF/WwmiXjNzT1cSXzk0uD86vUbXUkSr8+pcs4x54u15KDcV9KlW86/5vg3IDkAAAAAAAAAgADA+nD8v759XPWrm81TuNE4/tneEz1p/rvfU0CJFlHfKunS+85/wVMPQJIAAAAAAAAAAAGAjuTBT+SGtm+Vdw8MLL6TmAfbezVZwWOWjhYRJikK06eLi4X3bnnhTw5DsgAAAAAAAAAAAYCO4OabSd24d99rRfjDQrxj89ACDQwWKhPp1zvI15bKF8eTarjNHrRf3e+Ynp9DJ7v66XP4Ilxf/k8SJEkaCJyVZGXW/6WfoWvXL8PupQurx7HMmjK9+fDxI3/2rFdRAZIGAAAAAAAAAAgArBn/fPsFezOc+XOt+dq61yu0cWCRNp93Zmngv8sBd82kLyn3uQbhN3u+xDj4zV6fYo5t5vqN8ialHzDzW899/tEfQOIAAAAAAAAAAAGAVcV/6/+avc94W0nUB4XUZtdk+H3ZIp23ZZ48T1BgKxZoWRCh//ZTPvKhPc+nBZQIAAAAAAAAACAA0HZ+fMfeES2Zj2uhF5Xf+gcQ60U2Uyaj6bwtpynTV3I/mfBw/KR19+3z0/YIqJ4WHn4Qc1zk7X6jtJOGCMSl5brXpGkJAvvkh7pEN51/7dFHIYkAAAAAAAAAgABA29h/x96Xkfb+SpPaFhg/X/OyJfKpPKHzzp+nDRtKadfNCzrpKz22mS74zaS30n3LHDbAJHPm67s+8p0jf33LLaQhlQAAAAAAAAAEAEDLuPdmyuy84JkfNCX7OyIqE9iZYlJ9ZqFzh+epf2OxPk+fE+nSx9fsfSV3CTBlqEXTpwtcfOu25x+fg4QCAAAAAAAAEAAAK+b/3jaxbQP3fUZrvqZauHET70tom905wGdo+Az1DxRi35Q389K/aYloMmHm0Az+aRJ2TRDY0uuFzlH0cEGKv7Lt+ccfh6QCAAAAAAAAEAAAy+ZHn9x3iTDfJaImKOCg+m+hOeCw2iv1hR3a+jJ5QpvPW6BzBs/WHtPSu+56P3d/7gC2tld/V69bfzfOtS3s9L7ts+yrkZVm8Hc1raXjg1eNO8POvb2XrG/B9CTwW2qLAsalx1Y8IZoesxwjTTede82Rb0BiAQAAAAAAAAgAgKbZf/szrzOe5meE1FDiG+24iexiJ++T8hKBA+csBpftb8dT6+Z0rWOXVgngtw9dc/h/QHIBAAAAAAAAvYSHIlgZ/3LbM95ApD5lnMpz6k58ZZ1/Dnv3tqNff+1fm3m/+sU6r7DQV14hoLw6QDldv+tA5d127XihhoEH4eBxcV392ZpNTxrlP5RWLUghCXmwjrW7PQgln0Nx9xgqk8g9SDgWkDG7X/q7b9zkbcjNffc73yGsvQgAAAAAAADoCdADYAXsv+OZ/5E0fUgLq7Y9oIoz668O0D+wGF0Rz9oQt1qefVzET+dG57A1dKC+aAFRg2taxyWtYOg8Tiy/vzbgICGfkXMaHFctVy1/8aA68o7nP5+KkGYAAAAAAAAAAgAgws03k/r1C555s3GLf98ed+5yPhOW3G+4nL19rDLe+HlbTtOG/qJ1tiQk4Ngf8MRda+q1Oa3yeZU39oki2UxaROnWE3Tfg9l62/SJI2961quoAMkGAAAAAAAAIAAAAuy/45kfEM2/F3aGRaJvnF1voeNcUo7zravOqid0/rbTlMmU6mfXhhK4JvYTx3Eux5hizk0SE2nsoNcG3le76IevE5cXa3hDUgglck9pgwHB36zos08eO3ITggAAAAAAAAAABABAjR/dvu+DWtR/kjUqOt/594MAnqfLj09EKsMELLfcOSyg0pG/dry1JoA9XL78gl4qXf+tefbNNjHbnGlX9tVm/K/9dnT1t9OWemBiKe2641/reBCT78DM/85hCeF81w8KDxtYSlv+54N09CYMBwAAAAAAAAB0K5gEsAn8Mf8i6j8vObZcdjI58N3+pJj9lHBseFt0u2hFiwWPNg4srQxgO/81h5tDv6maY/v4ym97hvxqj/qA817fGZs2c+0+g7+tYzn4xb5OPe3aVP2WQ+/Ot52DUBHE5Jsd+SYrbb54F52za8P43FcxMSAAAAAAAAAAAYAe5ke37/t3JPxHItzkq/9G3eSbp1RUJJor8wFIcEb+2IEG4QEJRIFZ8yNZjOtyHzo3fK+R2xVyueex+51d/5POd9wLNchDzDFC6rIrxzdt3DB+6lsIAgAAAAAAAAC6DQwBSMH+O/a+THTmc+ZrtpPyde55Z2jgnELdXWfHiHkJrQIYWomv1t2eHKv0+Z9SWQWA6934g/spcv1A6ENCaTZ9/VAogENhDcf1E9NIur7/qURLid913guO/BEkvzsZHh7efO6mTZ8hXdlgr+FhbxMu6Lz8+iRNLqDUAAAAAACWmBgdvVhIfbhmM2lrp/2bafpgfvLNKLHOIoMiSOZfbr/gMtHe7UaCY5x/x1t1ez262syA4WPIehMdcwy5ttV/z57cSH3ZkvnTxKGjQz3ua8mH97u2BT653uk+kBYFs8yO3Mae0/T1Y9JOuH6jNGKvL6yUJx/+6T07D5137ZEvQgO6jw0bNmQV8fXkWrxTBQRsYWFnQdERlBkAAAAAgMWQUsaWctlP1m8ReQxFhQDAuuKfP5HbwZK5S0htjj/K4ZY6B78v45gG20SYTv5kgM7fPkdKdUaZ2VP0NT62+S4ozrX9W3j+0ugDzipPbv/pN7c957wXHHsYmtDFNLPwBQA9Tm5n7kLO6H0N1aqk8pOHJx9CiQEAQI/YURSyp2BHIQCwHrn3E7l+r6//c1LiscC69ZIQCGDrzb6I23+vKUXMMZRwvuOY4qIq9wTwhwMwBWfvX/qszIRP7q74NUdYHDMFcHVe/3paUslXcFjB0jH2/ACBtEIdHSJOeNKwgtoxbK9bsLT6ATlmPODo8AcK3dPS78rKAETOsjHfB9nz7jr6je2/sONFTx2DRnRZeyVuX18a6jkAvYvK0GsUe78XVpFIu8Fym/n2epQYAAB0v/PvGnZLUh9qCxAAWDfsymy8VWt6LtUcT2s9/aSJ9qrea6BLf2g9/nKKEpjpniy3nZPOjxxDdOZ0H23oX6SNA0XLoeHILP129jlkvNU6Jdi36EjLXnWAQ8fEdrWvFg1b59mdIKylDDlcVIG06pP3ccXTDx8TuXZsWvVoQa1MWOpXWbq3iQ19/DHz+cvQiO4iTcccAEAoAGBVos4hWQAAAHrImHLY1mgP1k97DoL86PZ9rxKRtzncX8dn4ujz2H32Qn8xrnbs+Ry5PtPsTzdSqRRSubgJ9JMWJghfPu44CWU/RQVh/y6/gRWHN5am9khbwzSdFoecQSlyiT4FjQAAAAAAAAB0A+gBEOKfb79grwh/TAur5fVbaXbZP9ckf81f13f+/SDA0Pnzwe7/1TRjxuPYs+FXHXO297BUtlldB6p9/8nq2+9f1eoAUbtk6JaWej5w/RoSTncpvfKwAql3FSifFxq3EBjOELhOpc8G1/MWGZ5hdw+Qet5rcQ0lulSSdwxfe/ROaEUXIvGbG8W+AOhV/EmdlSxbvQAAAPSALYUGAQGA9eX830xZjzOf0KKGYpeUc7jq0c/g0XGr8McHA7gp3aumvXAmU/7zhwJwOM2Y/poc/s3RvES2Rd6Ws3uz45bYmUa4DxHXu+iTdV6oUwTHXic4/CF6QjQhexgEs2jz37uHX3D0L6AVXYxjFE9gZQk0WgA0bq4cC+Gg+ycAAPR2O4C3KZ0NhgDY0ZBn7Psd0fzc5XXqDx/DK3Drm9e9qgvuTwiodeeV7frRfymKprcOXXP0D6ERPdBoccz3diksAOvdYGikJwx7DwAAetKmogSHCXSWz4siWOJHn9xzidbqFglMYekQaEn4TSnOacW54cOsRQNKRaZTT/fT5qEzkQTq8/knXTLumObTCocDpem0XBMtNp+vyhoFDQuTWWbNua8575qnvgKN6G6EYkRrJWtMAtAkW7duHdw0cM5xI2/9cdWaX79rkcMH85M587O45rojjatmqA4AAPSALZWwmFltPyLCCAB0KvfeTBlR2Y+R5izH9flPcgqSjoldbJ7SdZ3hBA/GMXee/2V+LksD5xSoL1uKJMwUXicvND+ANSN/7ULC0aULOTgrf6LF55rsTyjUxZ9iCio8FoNDExdEH0BwrgCxev9z6H4C5bJf69Krse5/70QAOCSf9hKUSQ0bAK0kvOxpWCY7rUt9teqNVMMWGo8VAAC6v/1qYPcz/H8EADqZHXuf8RYt6tm1iJVj2Hh1e8RFdYx5l9DvOI0Rir+OK64QdvQDnRECaTLNPt1Pw1vmg+++K9Ya2+cGHOTqnHwSfXdvzfrP9rawERvOu3UYWwvzCwc9rOpsCbV5AGvZldB6ohIq82A+agslVmMb1nVqFREHr2v+7tB0+h3nveDpk9CGHmq0Qi0Tc7ThAmC1LCh2jJnsZBlkl2WH+TMAAKA3owDSYBtAAKCT2P/x0V0k6gNkOcT+G3ARCXkFFWez8hZ86WU0B5xLezI8qXmg1rGBqfYrs9xb/WTqL8o5Rr9C5wciEWK9VGcqLGTorPnb0L9Y70wg9QBBoKO8BF/Si+UZBVxn+60UuwMU0WOWzq1P0O/uLyqylCd79IWEAx4SfeMU7I1an8qfwxEW+0ipTfZ32KT5jnOvOfoFVAW9RXgIQCgehQgAWBtZjJHBTuqNIkTxr3Vg7AEAQO+0XwltAWM+GAQAOprswIe05qGQN2r51fa796Ck2/vEYaWJWCsBSMjCE6t7O8WfF1UfcViN9rl1r8WfC2BDf5Gqb/1ro+GrQQvX2OfyrP9SyyK7+ngKRYcgxI0LZak547UgBoct3OAgochIAYlGAzgUuQjk0yo6tiMfLNWAxIL5/pe0MH/L0HWzM6gGehBOuQ2ANZDHTu02qSm4sEpcfjF8BgAAeqPpkhjbSWBXIQDQqTz2qWdcoTXdGH3jzpYAC3HMdJbRoe/sVABu6F2k3Re+YvL1iovK+Lh9tPGcRcso4+QkpN4DgUND/MUaBuCqACLD9Dncs4ACb7rqw/k5MrxCrAvbaQenBeDAkANxGc728oYiRWPCfqG4yDdvefHR/VD/Hm+0JNjtn9FQgbWQxUjQ1NreYTJZYvm6J/K009Cz74n5UTxZAADoDXuqNlLYMY8aAsIIAHQcotWtIiqT4NGHnP/0bnvAuFupEVdLg9MpovXr1OwG6h9YLCtlIAm7Rzxb+XQoL6dwkDjk3DvXVXc55uG07WuGehSwRPMXiGWErlMPKsis+efTRaaPbnk+HH9gyYsl94FJzRAMAKtoPTlFzhp51Sn2Uz6fv8983IeHBgAAgBwvBiXG3gcIAHQEP/r0vut1ka+yOumXPYLkSfyrU8xRZa4AotDo/OX47Il6VXVUpDZZH0ePsectqDrGFW/Y7wVwZr6PBgYKwURduimOiyd9dznp1aKMWyIqbpUFiQt6RNNIMpatqEJBsdwvWn2KC6fvPBdd/YFLjEM9AMI9VwBYVbl01Y8QRgAAAJ1IdCExe6oyvP1HAKCz8Jf9M87/LUF32t1R39XF357wz31cawJewbfbHH9Mrct+9FW7v+30qQ20cWAx6ivb3fHj/HSJTvDn2l/rUh22XyVkx4amQojst/Mj8QEICeWZWbTZME1avickf6dp8Z7zr56ZhoqDWL2xh5Nw/OqfALTV6Q9XcxwaV8mYVR8AAEBntl8Buz88RwyC2AgAdBIjz9h7uRYZICr1xDhFXSRaXFS0IVtMDFDEBTG4QYCi2U9KeZ2YkIfflcHv0n+MRA4L80FFsn9xcfHhLS/8yWGoNEjVaIXn5IxzxgBYrQhAwibIIwAAgE5sv6RRu4UGDAGATuEZr338fvPxLDx+AHoUvOIH60keYUABAADoxLYreew06FAUigAA0KvtVnhRC0aMAKyhLMbJHmQRAABAxzZgFFip27VgGOgwMigCAEBPtlf2nBYMZwuskSy6ZM9aQQWTKAEAAOjI9iv0tj9gPwmmAEAAAAAAOgjBIGvQqbLokEuIJwAAgI5rv9I0UGjAEAAAAIBOgDl5mBqGsIHVlEWXnRSYWRkGFAAAgA5tv8KremMl284HcwAAAHqz4VrmPgBaSdjpL/9JUA4hjwAAANaDPYV2a32AHgAAgN5zuhCSBh0UAZAGkQGIKwAAgHVpS6EB60jQAwAA0JNw7R9CyBqssSBS7NT/DJkEAACwXtov2FPrAvQAAAD0XpvFwSCAWNuE0W6B1bWfajIXEjxh2FEAAADWWftlBQHQAQABAADAOiVHuX7aSeOc0Zcwqb2mUs+ZWn+b+Rwy9Xu/CPWbar5gfi+Yyn6WiU+QyLQmekJJ6VF9ynts8unJk51yP65uaxLzfY3Jbt++feicbHabKctdrMtlvkMUncdaDZOiISEZNOVt/sTv0TUgxBkWKZpGed7cyJw5/oQ577CQfqKk6FGt9f7p6emZdSiG2dzO3AR5dJHHtE+zjCrmHeZZDZkb79eaB8yT0+Z+50x5aGEx98+z5ryT5t5nWPgnpOWYKDlWIjrcVygcKz3VPztJkwudIIuuCQCr22FArQg1sX37Funru5DI8+uuPcyyS0QNKyWbTflnRcr6UzT75o0EnSTFM+bBHBMtT5pncdiIU77IPK2m1Mxay0tYJ0ZGRsY88i4297LXyHvOyMoOk+dh5qX7KssTy5z5MDph6gNtdIJl1tQJM6L0T8S/T1HHlBQP60LmGB2nkx12j6nLYs+uXePc13cxadonzDlz39vs+sH8LprnPW/KwbRRNFOuF5WpF4v06KIsPnbkyJET69WW37lz51CWslu8LO2iEu0oMW0z97uV/PtnHtJCm/1y8Mtpqb3mrF9fsi8TxPNGJma0yFFTJk+wR/tPLyw88tRTTx3r4Xojm9uVu4gzcpVpT57jl+PB/OSLV+PC5lkOmGc55rd1imTC1Eejirgsy6a9H2Ax7Txzxjyzefbl2ciy2X7CyPQR8mWa9bQUVd5YAEeN3eW3gXo1269E4yolw8PDmzf1b5rwPLrQnD5hKrFRs3mHSWuIluS437c3zaf5M/WZuX9T302bMvmxad8fPXPmzGPHjx+fQ/OXHLwBAIAIo6Oju7LMNxiH8iXm57NNdbGt5pxY071WZ9SvVvJsr11e82TKBuh+Y4J+Y5HlrqmpqYfM7+Ja3JdpXLds7NtwPOBlsTP/C2cWz55vjML5dhsau3fv3pbJZPZ5xnA1hftMk4MJU8bjZt8u87eZ2RhrHGpMq2+Hq2PI2Xoe1jGBWeSXfhiDgR9mrb9eKvFnJ49MPtZOA2ElmHIZ2aAyN5j7+iWT92ebMtlijFkVuD97DH34ty2voedrHJ+C+ekbv76Re8jsP2SK4QlN/LjH+vGTp0/nZ2Zm5pZbNnvGxq5l4csbWE9ZY8i9n8vGXMzzXDpw1ujOrebYlurMIunbjC4eTn1PIyNXMXtXNjQKS/LIwcP5r6xZwPLc3BBv1i8ysvJi8wyuMg9wjJXv8ETLN0H/A7vEDxAI+cb0YWOMP26M7ANm34/MM3mcCoXHS0eyx4zjXGi3LuW25naojXKDua8XG7m+0tzPDpNplVb/a79teav2ftLiy5fvHJ8wmw8ppkNm2xOi6IAu8uOnFk4dWIlOtJqRkZHhLHsvM19f4peF7yCYglBp9J+iMrBgtu9n0d8S0X97cHr6vrVqo+Kc/Int24cpm90novYZp/QZ5uHtJUUTrGnEyOFm3ymq3V94SnZKIe9BeTHlIY+b33eLlD5nyuMHa/HcJ3K5V/gBnUbHFaR05/T09OMruZbvdG4+55zrFKmXGpm5xpTxrnpRyWMH8pPPbFeQMrcrd4ny6HpF9ALNdKm59nDg+Syn/SfxbRc/2G/0mB9nFlNfyeNUKj2m5zL5yacn/f2FZT+b0dHnmvbg74Uc9UlAvhqXXaXOvkqJ93yTyJXmPOP4l2U6WV4d7b//qf1ALskD5uAv67N85+TxyaOw6hEAAAAkNUS53NUZ4XcYg/d6JsvxpFADFDagwttctUs9WrzfNAp/9fTpU39tDMrZ1Q4ADIQDAORoYI0BNN/iAIBvYAwODl7sab5UKfpZc82LzfX2VoMrznIkcq+vk1TW4ryfSLrivzEX/q6m0ocOTU19o1MM3dxI7gaP6a3m+zW2c9zgecXLZBpZDZWpKZuC+Zo3Gx4xRoT5o396YnryS2mN4D1juY8aB/Sdqa+Z9Pw45X1ygp46tulS8eeNYf9A2gdzwWjuA8YC+71GedAitx3MT75+1euu3bmrPM/IjdANxuEfaKgzaeSpUVnXdWne7y1QPEsvnHxq8lDL720k9yLj5r/dY76Wym9wV67/jeQjXH7lIAjxtPn2iPl72NQd/+/A1OQXVuJELCu4NjJyBXveb5kMvdy0UQMt1/8lJ9g4TfrjvHj2Lw+s8ptw/w1wX1/fhX47YRz8nzX3eInJ0T6Txx3sB3tapP+x28hZHg+Zfz5snvedqxkYuWB0/C6Th5c3rnP0Sw/mmw86+r0bvRxdb2r115h0XuT3pnPJjmjjxE61NgDg2yL9fX1vMNd8o3muF8XaVm1o//22vxzoE7rN3Ne7VxIASJS7pWs5AwAT27dvo2z/K8zXXzbHmrSsOpuWIb/x+u8Hs+4ssnwon88/CjO/Ymh1+w1ue+4LJrJni/vwqOucuuYNC6cvfl6hs0JRolXJmyksLM7Q4U/P0C23aDyp1WVs19iVmQx/2Bh1zw22/I3XJw+0QwGD0R24Nn8XGkfiD849Z9N7hwYHbz2zuPgnq/CmPdhGScjeaXM/64nR3FvMxx+bq2b86VfLZZPQ/duObLMEy1esG+FgYKVe3uK2cYNvyI2bxHS1Iu/qibHxu0tn5a1tcF7SO/6juVcq4pv96H+gG7w42n2JsQskxmeWBPkNlW9la9Z83Wu27RVmY4DKjDEWdzfTPTosU4HnJ45ttgzY8imOl3fisNfF8bwd569U3hvp/2q/WTCO/zWe4g/6vURqBnuofO0yopT6n1T+LGHbmwfE767bYsd/fHT0BqOftxiduJRarv9B+WCKllNwP/s247j5Ni7k9w6T4tatW79y/PjxVbEn9uzefQllMh8y93CdaadUe/WfxlmpD0i2/90TY2N/cnJu7sOrEaz2ew4pUl8mv4uzsrPPdpPcMv2Pe+aOcy81bfZnTDv2LuNuv/XA1NQPVuOZ+4agoqDMR/zjZdRle3bt2sde35vM19ex8DbhhHhIi20D/223t4nfwyxvM1fZLC59bXv7X+4p49/3lpXaUhwzDIDFWX5ZU6ddp0T9prn2dX7vRg7Jn8To6Qra/34ju6/1hF41MTr2J2eKi+9fTXsTAYA1YuDokVtVYf4V3IQOh7sAtsS/bSLNpvKa8lj7uL4TefKUcnYHC/bpdqg6J8zoEe5bmDaj1X2eqRkG+xbomW84Jp96w8PGuPgOl+TuxSduexQBgfZhDLjBwf6BD5mvb/Gd0/D4Y6fzTO4x8+JoMMMSEaismU3jwx/uz2RvMkb8myafnLx/Ne9dVkn/rcQzja5Paco3Qa0kzllL2F/hOpWlf8qN5F4zOT1596oGn8bGLvJE/akfjKh10W+c38TfEvNMG8kvx+wz24vG+V/Wm696N/LGMphW/9Lef5L+rURn0shnu1l6g5b9A3Ph15qbVInBimXof5r6L+Rk6oIqzLVIJyY84T82+bnO94HSvtRegf7HvkyMlVUmnclkVqNtzu4ZzflDZf5DrffDKuk/l7vW838aGtx846aBTW9td92oS1xkL3iP7dT/ZusfUyCXi6jvjI+N/fahfP4v16qdFuu5NlHvqInR0StN/t9Nvl7x0rAgSaP/LYpqGuf3Zaai+lOT3ogkJLpa7T+LzLXj+YS3+3X1Bq/vN5TiN5urTljxrKCscjDI0cr2vzyUkvh3NmayV03s3PkrB44cyfey7d/dywD+4i/2K114bnV2Sg79kePT1kd7n+tcsma+TDqWreWcOOYcsr6LdRy7vlt/Ek7HvlcK5beyb8PB/1uvPezlOqonBH6n3WcVWuw+arjPn1DOVEhjiuQGj+hW5fH/y+57/YPZTx18J93x481w11uLHwUf3DjwD6ZS/vd+V2uXTLl0JSyP4WVfOKQfkqQbXH4PfXEmw/fuGRn796tx32n0vw1WzGwn6L/rmvXnxsOe4rvK4y5XSwbHxv5dhvj7Si05/0QJdXVItqRBHc2OWYmd8hw+j6LX1Ip9R6fYtOfP8eUe90xdbQs5ziUOVc0xeisx+rtc3Wmk/6sUNLrMOP/fNzL7OlN/qSQ5Wa32v/IWcb4FTsKrPFH/ZO7rer/L92rpP4XLisL1Q/Scdr9J8+eimRjLfdOUhT/0pH+t9N/8HvcUfXnPaO6WdtrOntJzq6X/7Dg/TftvlG1AEf/5xNjYf1wNJyXJro485/h25lojR/ey8v7e2JUv8+cEaUb/W0BmYnTsDxSpu0wBjnRK+28SmVupLcUck9d6OY4M9GWfUJ76sNkw4aqjnb5Su9p/xZdLX/beiZ07xxAA6FJGZ4sXU6m4LS6k7VoC3PZja/sk3q6zo1ipuwtxvWuM3WUykg43jj5G7oFjzrf2Zaf3E5UWU8b42x3HTWVDX8IkH81y5mD2jid+l/70nwfhurfEgL6SM33/aBrzSyIyT80t68rkMCYs/eAUPlLZuFP80YnR3K2rUTc10v9Wr7+uWc91gv5H7lciBka/2Xa7Lx/tbn/GR8Y+aHy3vzJOzmCqZ9WEbLnOSZLxSB0dPl9kfjkyliRniedwfOzUdaOuNovj9Jdbr0srDSw0GTS6to/4XuUbkynkZLXaf5Of4kod4j0jY//B6MRnlCrPdr3q+u+UrYAeBM5v62oBYzvGLupj7x9M/fDcNdf/pQBpxjzj3zeO5Cd8U6otVlKpNLuq+u86P0X7vzQXAX9oYiR3YztlQKdsx+PI7c49+4LR3DeNTv2dyfNVrdD/ZvHnGTB2zWdYqd9hP1jZQe2/sJxqi2EVkC0eMP9s5rR19Cq0/37bQX0b/tafbwMBgG68uTNPX1XtdynV/peVriUi9T8KfUa+U+j8mHPESp9i0qdQmtUe8660XNekhDQlJv/htPjsPPU95U96Xf2vPEvn0velCTvKv6nyKdYniVDgv/Bvxzn1c8m9P+m/aj7KudT+rKgf6hva+KD3yQPXwoVfmfNvDOivkz/TbEqZkjj5bXB+rM5QUFcqU9kqv5vnxMj4B9tZP6XR/1bHwkSr2U7Q/6T6rb6NBzzi2/1JC9v1DIzz/3vmYf9uw/o3qa5NU3+nSCvlOcXlyBmF/ux2Qij53hLPT7onSnf+cnWnof63Ed+gV8Kf92eIbvL5tb3913pl3Wn3jOTeZqzUD5fH566h/ieWD9XT0tK+yf9yO3MXen3qm6Z6HO8Q/be6JvPr9oyMf6wdbZRe7JtdLf2XJmTK1f77ckoe/+nIyMjedup8qucXwn+7a5zu2z2P/l6Yr2mJ/i+PjDdKHzd2zSs7sv0XWdm8Fg3Kr1n7cTXbf8OlGzJ9H0AAoAvhYvF5djeZ8nN3dIWpTf5hvcEQinb3s8+XmK6AYp0fDtuGz6fQtcTRXUcc5wfyTDHnUbQ7jFj3mH3yMX9Cn/p/HP109ZEUZvd5lf/I2mafy9Zn5BrV86xPO32KXI/2en389b5PHbiVbr43A3e+OfzGOkN8V3nZII7KJLFDvkOhZu3PHk8ybWrRHxDLt8zvr/ifzHKfFnm8PIM6B2VYwrJJ9W5ctvxK+Rz5j3vGxn6jfZVDY/1v9VtS0TLbEfpvnU+hbXa3Uz9CPnTOpve3xfn3x0Eyv99fvswlf+F6034mnPD8ws/WLl9KqL/jnkmoLm/aUOKQ3NtdF+2RVUIJzz2kPxzaHzf8JnxspP3hlesPxchtu/C7g3uKPmeEc3OkfY6R/9Vs/83GZQcAyjNqK/qI/4awE/Q/LP9h+ZPyWzRqS/d/f3Zwr4++akpix3L1v7zCCdNR0x79kCttlK60Uf6yZOyvId6E/gsFnwd79IYLRsb+U6vvfZ7m5/RS3tuv/8ts/0PXHsoq7yNtdVJCOkqO4Ti2w+33ouG+7P8zuvRaqg5tXKH+L5cLxsZ+1+Tjxo6x/0P6r3llQwDC9QfHyGa4Lna1yWvR/ntKvc2fg6gXfYFudp4Ua32FPVNqoDuPY1bJyOzADY4J7+PQ+ZLmfImu5OEaSmDP4BmxsSR9Hqvb+g7/uPJ2vdw9Z+k7u2eVrRuzlRWpQ6HQ8L3WFZVrx0Zma7Wu6cy2fU+u64pkTFr/oW9f7uLFO378anrtM2bh2jfG7+5kGuvPs7/sXMLsKWFZNM/KN0h+aL78rfn79tzCwkPHjx9Pajiye3bvvpA4Y4xafqlJ52qictfyeNm0dNTvXqiFPmrSeODgk08+3HL/v0n9bwUeF+dI9+ly18k4/Rfxu3+eFOIZ8+OEeU4nTNmf8Ldpop/668Ebg3ZWKTVXKpWN7wV/zKh/fqmg5jxVqPWYLFJ2QPXJiB/lNum82HxexVJZCz2h/gjNqPy2iZ07/7iVk+X4MyAr4o8Ztc7E1Ynkkonq2wamk6ac/ElCHxHhJ0x+j5JnykfrIossCHN5Ai0lalCUDBgLxw90mT/ZKqKGzec21uQPDdtm0hyi6lrDMc+/PvPyMtbgl2j+HWUc2zbFHhOnNyH9Ddvs4WvIMn1/koSVmdrXA0D1sfqYkeWRuHJwyVH0/mXWX+/dPM9HmfQTZtNRpflEifW80qroS6UWnfG0GtBKBivyM2R0Z6t5cFt8uTHbton5btIZUpXhK1xJe7n1srm9j5eXXZVltP9+vaHoEVNJP2x8xydY82Fx6ET1nsy9+Hn2hxicb8phi0lgi0lnm/ludEKGzX0NVpeb44Qypfb0AMjShv5PlScKS6E/wfrbrxPkS+Z+v6mfph9OPn1oluJ7kWdyO3N7lUdXGmf+Jeao68pdlWP036Uw5jq3TORy9x2YnPxWq25+4PhAkUfJX1JyML6OEH+egFlTDjPGQz5mts+YZ2/aCT1j2s2fmgdnZJxnTas9a+R5oVikeUXFeVbKCATPZwqLtbqs4HnZPqJdRjouNuXwAnPOi6pDstLUMZXVIW7wVxHKH87f12phKK8CII1tW3+BytHR0cv7lKkjhC9z2jIrsP+XU635vZWMLr2f466fwv5fsr04X156U+Qxs3nSCN4xUzCz2n+cWhaMUdFv2jalxNRXSy92jG7L+ea5bCnP8i/ltm6HSWnIlKdfZ2XqjtLKei2xNOejSKM2Scu8yfMhk3dzr/qA2XxE/Da+aOwiTwpWfdZv5NTYsfyM8gopmq9g/74b2A+OeqxfCb/XfN6EAECXsP1nf3GMTuZ3uGZAtcfIOJ10Di3BRO7lmhtt44S0mKNGmNDyrhmundIsLd135InamyixaklxWnu1iigwJlBCDn/4IuKoMoUp6mW6qtdAfsJrnHDtfGOsXGeMwq8ufuLBl9Ib//VJuPjJbMxk/e6ll7hsZqdMihTN5i9W1k99iFKuge7bFRXH3f/7s9z23LjXx79lTMq3lAMBKeTdn2hIVOavzNdfaOK6TXkyafW/JYbMYt+sl6EfGgf+GLMcNXd01BjcTxrrJl8iOsxn+LD/9uf48eML1Lp1lvebv3vM3//fn1XcVPg3m4K+0R/LGle/BOsWYxB7fW82397XskBIefkj2kEN6tugPJbH399pPm+fmz9zf4PgU2qHcuvWrQP9/f2bMyIjmrwRj2nM1FF7/G7H5m9CyoYxbfaXP2t2DoASySeNMfSPycatzioqz4GQdTrTNb9GZsyXd5iNmmj5znuYRaLHmzbGY/Qn4I+2oe4yjtbLjWF/Qxq5dSypeNT8e6fJ/F2n5ucfaJH8ZIz89Fflhz1vpLTMhPoz2bcYgd9HTbT/4o+/F/mKuadPnJw79b0WLVFX1okBGhj0+ksjLGrEtAFjxGqPqbv9rvjjxsIfo6UAQdbUX3Mtf86jud8x+nYtOdoj5zNecpC+Ibr4oYPT0/c1UXcWJ49M7q/Ukf8jtzW3I9Mvbzff3+k7UUnL49fHF7PSWj42PDz8c61aInCSJvUeyv3QXMlvB46WZZdlSmme1lQ6bBz46dOnT8+Z6823sJ3w64HvlttqUw6qX37btL/vLLfVoVnZ4+znjMfvMh/3tduGidV/j9+RZeUP++1P8+xStf9MC0a69ps24X5T932n2frBtPd/SpWgezP2v293mR/3mY2fMbbXN/L5yXwrnrU/F0FppDTgFb1t/ssBc51dUlA/aNUzSVt/BY8rv+j4npT0vcL6/qfn5/cvR5fKq1lt3HidSeu3TKJXVgOYceVN1nZz4CtGR0ffMzU1dbiX/AHu1hsbvehfvyx7+qd/uxxB5hUqworOl5VNopT2/NLGzXTkvZ8zVVSmqbw3OkZSClZcOsstP2H+duHUzEvozZfPw82Pqfx3557tKfp7VpxJ81z8rvy6RP7SfN9unXE3erFxAW83VfOlqeSiPK5Wv+ngdP6vW5UHfzmageyG4ymuvzBfOHt+t60X68/wb4ya25XigTT1hzn20IGpQ89oiQHiv/0/l54wxuVw2vrLGAhfKC3Quyafmjy0BsWV3b179zbP88YyzP2tfNNXNVo2D5xzvBYUi6m/jaF2+EB+MtdCg39Z7BnNfaAyG3ti/WHqjtsO5idf38rnMDGWe9AYdRc10674b/dNZm45tTB/R4uc/naQMfd20NzbSNr225TvN/Qi/VbFgV31/BpjeZvSasy4v5sPTU19o2Xy5a/Nnul7sPwmPpW9I4e16LeaPHypZe3k9ty4yvIn/FVJ0ttd+uYD+fx/7qZ2wp8nyCP+nKmrd6W0PRfo7JncgaeeOtbaOmf8LvMsXr5a9rf594BJ6Gua9N+dLRbvM+3/iWXle2zstYrV7U3b7/4Ll6LcMnl48qGOtyXKw5a8v2/W/yjXy6K/UCrx5+hJun+SJls5maiaGMn9mvEJ/jQwkWqjOlXLuw5OTf5hL/kEXdsDQJWKP1dTaK53U48TTvs4uyKJfSPj2OY6N+4tfFxe3MafdQ8N8hU1noPHV7+rM7PknT5JpXO3BtNpIgIRV9lyExWxxJRhtLykModATCRL6OrM4PCfG+v49XD13bruefwRv9u1pKoM6W49S78++fRkS3tVHJiaesQ4Pc8bHBj4X4r4eonRK7GEiZV6n3HaP91ORzxO/7sR48R+YXx0dE5Efdl+8xyrW4rGjTF4RT7fgu6dm+nlvvMfVy9xsMeR8XPo3aZR/iNqRw+QdBSefPLJafM53c6LWCOjOlr2VEJ7ZrdRLTc0R3Kv9J3/WLlxtdEiny3o0lunp6dnOlkf9+wa87uej6Rp/41CaNbyXw9O59+/hjpRrLwpa/nbMuVlP2xudCCNvWTqhwcWRf9yq9/aVQKNL5wYy33cXPR1lKCPtXyx+m3TRv3Zcp3FTsSv73M7cy+gPvkHu85O0P/+Urb/evPtb9pV5zSj/5zS/q+0M76z/Xkm/SXfRmmFvWXsm/dQE/Z/eaifpjc9MT35xfUkJ4GXflwfwsscseHntdDXuCSfPHg4fze1L5itD0xPftrYLPtZ+H+bunVLI7mpNL6/av7tqQBA104CyLp4UVUI2TVGPuRthMfohJa6Wfot1rESP3aoNuZEQteT0NIUEjw37re9tIczX/Y+IedYJvseqnnPnJi2LlP5jyOTxgZm5SeiyLfofnsfOT+p9hndFkytOsSAY9Ks51GRvK7vjgO/AV8/ygUjuRtMCT67KidsyQGHtpnG6W49Jb/caue/iv8mbqFQ+FVznfvZmhHWlmcO6tl4v5f9tba0Wkn6L90rD+W3dpr/kCRYVznnEZFypPja1jQ4/G8D15P4MXpm33+pROR1VyunhMqhg2UvPP6ALWMv3L60tIiY32HLZ6S8wm1oif7rgfzkazrd+S/fi7ekE6naf5K/OLC2zn/bKI+XZnlZRL5C9lJl1aIHSk/Ti9vYZbdo5Oc3pSRfco1lruWvPhpxqL+v7y3d9kz8HibGP/7tSL0Uo/9qaa6Z1tc5jnlqYvXfVS857H9jcxwSU0+Q6J817cy/MX//pUXOvz/J7TXmihent/8lXyT5xfXm/Nv2pG1HRWwpLXk6u7Dn0NTkrxrn/yu0Cj3Z8vn8D0uabqoMY420TRzxleQKf/JRBAC6IQBQKu5zhgzFklBx/A4PWIkM6g+FkKoRxmb7tCe9Pk/jtCTtC3cVcK3t6xv1P3kyNAe/PZc/OfcRUeSb61wKnVHd4jrf3keRa9nZDk4rGs5j+ZuiP6DbnhiDyx8SD0Xvi5Vxq6DNz/2lp+XXW9wlK4L/Nr9I+jXVSbOS1mOuzOj61pbWV2n0n7tbJgpUvFVIZpxdMEJ1pQg/pwWXzCqWK9N0szD5eviJqcneWZ6HKf2gyU4xGCSmnWmx3uzZvfsSZrki0h47dLfiHN5xYPrQ+2iNh0s0UaRXpWv/JX/qzJn3dGtALKP4PUz1FRAiAZF683/Uf/PfrgC1HQRYKBV+U7RMB2TdVUeWHQj250rpul61h6amPm3q40edNmdU/5/dar9CxdnjjWx3h/1v6oaCsHyhqOWXDuQPPdPUE++tOP0t1SnF6jfT2v/+m/Fikf6tcVgfXbdtFyXbEMK00OqhIakCWNOTd4umLyROElP3KBRl+69BAKA72Guvsxx4Wxxah9y1dmp9WfLQWpYx5zuPC1+fHemQIy+UMr+ScH+UnF//0/vp0dA6naG36v7vyNqbUl8L2JWfwHHBaQAD51vf7QlmiBqtv1u/cDB/SwewlqGsx7fC5a/jj+UzJXN5oryU13Q2jaMuvn4VDKsypsE7YK77oVh9CMr5ZblduUtaFhBJo//S3XLhvx0VzZ+NrT+s8jBV16Urvd7IyMiYFtqSWPbVOpLk1nKMoheCc3FtQOizY/Kbor1pqX3J3qvL6+Kn0lfJnzx96u3rxUk2OjEkS5NNNmz/SyR/0MHzGKy0HPZqkusjNlJIrrQWrXXpzas1WZffpd84jO+Nlb2AfvLI0pvfrqNo7vBjifZ0Xf925bbmtrWljkyh/3H58+sFIX3zoug9ByYnf8V3DNvVvgwPD28217w+rf1v/nnfehjv33R7QJ1hRzHrW+t2RXJ+ieV5CACsc8674aYxKhb6w0ukLucv3K0lZunVxOPC3ZYa/on7Okl54GUc4z19nCJ9Tm3PO9BvxtE/USS43/6rRWnt9Ox+vxLsex729l1pSvgYK3/WQxDmV2Rue+JyuP5LZIR+M6W833ZwevqB1cybMdb/jP1Z8RvIq2JWyqNfaVmjkFb/uxz25MtxdVqgLJi3GSN9eEVyyDzhP8dGdZ/R8flFrb/WK/qZtr7u1Py6/qSlBhy/LG3bJiTva9Vs7KtigJXUuL8kV6P23+hEUS0ufrFbdaCPvdebcshGhjiGn7eiu1s54V8aDubz/9Nffi2NniriV3dlkLJYvNsfK99I7/1nKBtlopXX1iuwf03OHzaO/03zi4Wf8SdpXI3A0dDApmv9pUHT2P++XJWm6C+6qf1yPZe15MDUlL989cPp/D2+AgGAdc7gjx/ZVl4Cot59OJ0XXfmUmGPD26uTXnAKDeAVePScILGcIs24873Z47X1+peO46W/6m/7c8kQqx9X/W11/A98coPP0PHl/6rpcXTIQOD6FPNZOU+JZMjjd8P1X5pl3JTMyxvJnjGcC6UCfXC18+cb6yL86Yi8uvSA6Pq2tFpx+t8DnCkUHhB/nv9QXeGqMzztrXRozY6U9d7j62HsdrssKO70SFQaK7xF7N69e8QUyMVp2jZ/TK/O853r6dFnsrwjVftPdPTAkSP5brVDzS2+Klb+qTbPj6ZS6ZY1yF/ROL9/lc6u4heZf7Pd9oAOHj58wNzv0TQ2a0Z4bLWijnG2rT9kQZP+1QP5yZ87mM/fsZor+RjP48Wp7X+ij7R7uOVaRAC4nRHhZcWQ5CvONxzR57Rv586dAwgArGf6N0ywS0iTBNj6jJsEn3kZabZyH7X2PG/up44x+OR2vh1j9eN0aTmf0UfBK/pUvtP78f27ej0AMLhx49WsrCXXYqczpi+t0TJr5tLFz6SU50u2t2OSljj974EggDGM/OEeh1O2FjtWVMyiBlPWX3kCHYlO2fa0SnWynnd17BwVkXpEbltvxrRxLAdSFRzzdLfK1NjOsUvNfe9Nqhsqk7ndf3B6+gdr4uOUFj9bXpu90XHMIxOjo/u68DGZe+fHUtmeLNvaZCikUajHRcsbjeP/s8bxv5NWfx4Qf6jS1alsfJHZgpQ+2xMNxxrbUqUS/106B4Q3Zyk7hgDAOsabOzlkjz0JjE0n95j1xHH+cePvV/BHbUo3Ka3wvav5WWPRldzjDhv9SWieAEoYw5h0vlW3L/f8Wj7IHo8n2ezGFs8cvy4tdvWSNDKvSd++Vlk0Rt0Ptch0Q51hzgz29V/ZGsM7nQ71AEVzw0fT1I+msRxaoWk04Jw/JXJNLvaSiqat1zvFYFjV/Gr1nDRtW3mM/KL8r3X5/FOVqXTtfBie5/fsYpVCpm6nNZrbwe99YfLwcDo7TF3VpRXVdDpZ5fPbUkc2urbW/6OYp391YGryb2iNJgDdvn27P8fN3pT2/z3d0NMtlb+z1g3YHD2ktRTS+GSc0fsQAFjPApnNjC71xqoGdep/4d/OP/sYaxkeTjiXOEW6rnxULICmzrHySK68xxwXufdigXixkDI6J+6Inr1GUeowbfC4wLe0eYlG7qIRPaF/2+Puv2KWayJyE9YJoZOnFxa+tZZOqBL+Xhq9FCX/phUXTKv/PQHTjF1fxpWPoX9FvpzwXKAuo9g6ub+XlNTZ7jjq9M4Rl3RtVUuupeSyhuWz1IgeyB/N7193D7+Usv0n6tpuqaz4hY3lSfQi6S+tbaBGvp1oK9byyv+mK+1qopOcQv9NOQ22pY5sdF2hf1nrHkD9ff2XKWUkOkX9aPL71a5qvxL8oLVuwPyJrU0+DjWy9Za2qb0IAKxngRTe0sh/TbU/aQmP0Dkcsz1wjri3MSfkSaI+t/0jvLZpXJ5da0v7zr8fBKAU+smhgTzu4Z5SGeNfm4DFGTMIOOwU7faffA0KLTeYePwVdMePN/eq9z+xc+eIKYwJZyEFt92/1rNLC+t/bKiXSxM8Xtou66Z3YW13s+aYMlG8YsNuIVIXOOpEY0Dupe5eoaY5Oewg71/b+ZH4e2hFlstjMZn3pSkHIf4urcfl8TxaSNX+L9XjXbfEXI5y/czWxFvxbwsfmZqaOrrGjs4/ptFNVnRpV7YSzHOUQv/Nce2RU+58b8ZTckla+7+k5Nvd1naxxNxzB9hXxmt41GVTRtpeNtUSAgDr+KYK89lIF4961C2x22/gGGrQRZhSbk9awq9RnijQBTeyRF7ssoMphjBQaZGoHACQ8n+BGfYpeBERS5NFyP4vrOm17bVClfo1HOlL5RgJXV8q2yLbJXRtK4+145fO6c9odUnPunVe9jK/Q1OK7qV/v9Z5LZX44dghMsGuZPtaUW+l0v8eCgoE6pi4stcrbYD1TOwQKwksizS+Z9euvb1W9onDIjo1vwnt1oqNac/bZRIaatS1dGmBGfn+enz2usQnUrX/REO53bmuW9lGjZQuMffX39Am0nzfmgd4isWH0w3rlAk/sNHVdVWC/rf9uuK2gzvDB+ZnpbH/zT/H8vn8oW5sv8L+f+c8G30gjV/HQrsQAFjXAimDke7O1eVlwttD32OP4RV+j7tmE8dUA1a11QfSppPQrZQXz5I9BSaHpvNk6yS2ttnHub6zfW7MFK5Mjr5DjulEmRtMMcr1a0Xyq+jiXg0AaKafayTv/p8W+uGa51Xpx8hfZqg+LMGpS4p4ZOfOnf0rjwan0/+eCRYlDDOyluBaWb1cUvnghNnuZ+Avi0aZvrf3TNnH1fUclc1OMBgatnct0h2PvL1JcmK3g0WWh9fjsy9ScTpN+2/qPeUpekfXGaBKXZrYPlXrJaX/aa3zOre4eJhFZuNsLWsp6EHavrIJUzvToEhn77a1zonR/04ZrqeE9qaxyY2oPEzrscdSnO0Q0gNyPKe1DwDQwTR1rfmxAwGA9RwAyGzYHPSWQwLoXo4j+Rha4fe4tCkhL606xg7JhY5lXQorSeAQe0RBeMI+1zkUc0zSSApOMIzJygMnpBc/goP39GoAQPnLZzWSd395t1Lh0bXOa6V750IKvenP6uy2lnhdafW/l5CEMlqhuVKQwrRJZyFNfWj+f0tud+5q6qUoQKPvneEDNM4vt6xMxtO02/4SpouLi4+tx8eeeTJzQkRmUrXtTL92wUju5V1V3Qj/q0Q7pip3JX5krfPqD5MTphON7DF/CWrZILu62ltYxfpKN2O3r7E6G/kYS2X/C+3vuvYryY7qjF4AR1P5UeQYQo4AwDqSReaBdtjDKz6XW5PusvPrGq9WLDRIS5zT9cX5CNIgN2ztqzv40rD9kIbBA3HWM9xDyhwtM9nXSCj8iX3OUMWoWWPfgjndcnRdaVx1oiPa4tbiyJEjvrNzIFG3a70QOOtl+K6Kw6N6rswFougxpx2LOevL1nq8x/KkZUyPprRrlCj61MRo7g1doxNMF0qCLlRW+ClqpfOdEbCgVMsxeiVCG9VjDA8P+37HcBr7n1h+jBJb5apG5Gi6KkmGEQBY3xGA/oZLykm6ZeeIYsb3U+Nl6ojil60jihm7Tw2WxGuQl2bTpVJxGWsihuYGCI+9dxwvoc+lsVvxx5EjPXHkz51e/U+TzvZofeeP/R+rzn8RK6daThjjuSPWztbEJ9LoqRLZ0gJDLrX+d3+gKF2d0SIL+tuJ9SQFxrwPGdn9/J6x8a/uGRu7lrpwErTY8ufOlEVF6ZZpbUm5aNqRSk+Z8uv6+Qt9K237b4wbf2LETxid+KbRiRvMhvXcvvlrpk/E6b9lzyxMTU0d6wjTUtGJNLYfq+588bBauh/bXiddd4071A9t2DDk62ca+58157tGJqSxv9IhvTROpvEBtVB/t87hEXESujba00jo4rrIc4pjOW0GYtJ19WmvniMNrsMxxzZKN+E3d/F6Z0q4J73/0dHRbf5yaokzTC91tT5GnTIWjWWGI8IZlVkhNbzyGGFKPe1Cldi5c+dwX1/ftgzzDir5491kLFIHOOqMVgQBjDreZZzIt0WuIzF1m7+kEtF15st1E2Pjh4TkS2bnlxcWF+87cuTIfFe0VULJXZ86bBUAlfK4lTtbsoXdy7uGe9MdXdcCoIufZ9X3+820/+bjahJ19cRY7rAQf4lL8uWTZ059b2ZmZna93PbWrVsHzPMd5iT9X6qs/d4dxQ5RgBlWCbZXJf/GiVjvbxHVyMjIUJ/WW0ipHeK3FUSXcsogQcvryBT29Fo310Xq29KX0q7QVDrcNb5WivqqE0yps1qf7Fdesg+49DtD51I/PU0LCACsQ4T0nEhtbdDaZ01YJdiFXMKGqCUgbEewJHh+ON3qLNoU3ubQAA7nIdx/XdzXd13LPjWQbuheXbEGymQbWPaB1JtU5frxUTu2NekmbytPhLfQiwEAVVLbKLO0AoAtLxySXVF0soMUd05SPOYWLEdX19sk/V9Hjzt3bm5zcbA4uKFurO1Q/htURTuZ1C5jkO4wt+g7+9vMLWaZOFO+V8+SiXBdZzv+3Bqv7mA+/13jyO83yV0o4TqW6nWs2N/rz2RcEb/TODzv7M9k5y4YzT1gsvQ9U9//gyoUHjrw1FPH1qcF1bid6qgeAA6dZAreQ2tiFrwl6VqW8h5bz3X1wSeffNg48g+Y+7ii+fafd5ln8hbx+C3nnrNp/tzBTT9QQt81ev+PpXn64eTxyc4J8IbYpNSAaNnsB3kS9Z86p40ydto811crqfsPHNomvKkT2wk/6NLf37+5bB8o2uEtTXhm2gzTTvizn3O5180OxbTNfxNKnpfx17W332hTA/1vS7lLgv5zayapXSleHw0HZCDG/hcRXVLqRNf4WxLr90f9mjVkQ7FYEC9TMA8m63I9uL7KWoayhB4A6xZNBVswRdzCmuSgV7fZDRPZlZzEpCvximFfTxzXiny3K7lQumxF1uIm5JPksd9Ln16moVfm/t7Q9w5sjLQL7Cjc1LEASbmtPAfAsZ4MAGT8bvIclc2Q7HIHGVcmN/MBPYlrWIQHW3K1RvrfGW9eMyMjI5uzzBPGsR/XwiPGztlZmal2h8m3+eRt5gYGs5TxuwerWuOrrMfOlka46jhXXReui1pjYBVKIh/OMH/CVceGHP5IHVYPbvKg+X4Nl/884v6NC3tGxw8ZU/WHUpIHTV4f4rNnHz7w1FP+BGvF9WBAxbZTnR6XkuDws1YFLISMc5gQNq47W3pm3RvRRfmAEeO/9cf5L7f9r8x9dJUxuq/yN6p+KVwwlstrTT80xz9YEnpIs3640p1+zXWiyBu2ZPx5DRrpv8hs58TqZK4eoQjVk3avlBYEqZtt8oeHhwfP3bhxXJQaZ+Exk6WdynfoyQ8I8y6Tqy3m92ZNNMgZVmG98reIFYBhTm96SQqbszXl7zAbWxigXpk9wZvT2P/ms5g5e3auW2xNZnc7zR3WcJUW+gtqAxWM65F1yZN1D0r3a4UAwHp1fhbPzhC7Z4oPyyQ7JuaLq/dqbbEddaToTPkcOibYmy2+PuXQdSyb3dkz2a6kG/UUjZuRX7y+BBMz5Zv2mDCfO0/BV1uRYyRVZCFtBMLvi3ewFwMAxgDYwsrtaARkVzrHOWLSmiuZDtlYYflXLbEkGuj/GrVdGX+9b0/R1SYjv2CMt0vMQxrjpa7wpDhUR9T0n5el/80c0yrjbnJq8rY9Y+OvN3m/mhxvjTh0j65jIr0qhfqN6FxoSuFC8vjGsj24oV/vGcsdNd8fMfsfMvu/T4XCDw4cOZLvRCMqXf3Zefl1tlktkRV/vHtUHsNlpYXXvTF98HD+axOjuS+YG31lq9p/fyJN87FXebTX7H+V3/nVM//tyY0fVSSPishDpu3+P0WWB/L5/IFVr+j6libbaqT/ps4rdlC7qoUT3nTXG9Z2OxBqYnT0IpORa8xFn2MK6lKTr3FlnnlYFupZ4sDy0UlmFzvuix0BKJf+tyMIYF8vrq5c6x4AWutBZZStkf2vjc01p/V8dxmc0TrKDiZ1Qh+kU94pfS5t0nb94q5vOGP0HD0A1iva61vwimdj6+ZGdXfSPtfcAs5VP3gZ6VLyyoMioXWiU+Y9KaghfVn3TUlCbRs32CfU8nCsh8HkMuzcURhO9moaHGfavId7MQDgv4GIvD1zl/n1E6PjD66lp1F/jDJGTch0C/z/xG2rWCS+MXcls7rJGGkvM47qjkAemNui/7R296uLUnpNVtR3TGu7t9n61vmsHPWOWoom+bNx7zL7X0RL9Z2eGBvPm2/fFZK/K4p8a2pq6nCnOf/NPt+1zG+7VuNiRw8Ad37kdDeYLQUpvTmrM3uNI3NpO9v/paFAvIN955H92WJJ+3MJkD90QOibXCrcsxpBspJSmzNp7CKhy43OPtj2CFmK9Iw9sWMtddG0Exebmu31Jp+vMD/HuRYxT2HfcuO2L1VdtEr6X2scU7Zda/2yWZEaSGP/+zGA48ePL3SZ/x/9bclbJ0zFtWlmU4EHl4KJ3MAP0xo9ANZvS5rduKAWz7prCEdNwRwd2+TaRiH/1XmOs5uBywkm5xj+RufEjI2NzVN4nFTgnL6+8sCl8mz6FBMVFjuJYE6jt8iBtJbeSroXBmRrYKOz54W4emTUj+dQ/lztuJCaLZ7+ySPUmxGAzZKqpeQtZtuWgPymbV2Xs92hU6p2XU4cX1zbpGXFb/xEUuh/+y2KTG4kd4O5//ea75eL3wnTrkParf+O5xEoi/BzbGEU33e6c9tzL/Sy8jlz0cvT1pWuutV537HyUy7jcVMzjRsdeV2WacE4Pz/QJflcScmdaxEMCI13dt5HJw0BEGms59Kq67D7rWJoOF1XvE2bnp6emdi+/cU62/85VnzVqul/ufM3jZjfNypFN4rKFvaM5h4Skc+r0uL/bFcwgLUeFH9Sroa2Em822y+N6D8vR/8TZErF2G+hulIoXhbrWW9tr5Q9IyNXsfLeb65ztXH6M2F5WHHb3Mr2v9X2fM1eXPX2ubl8smSVcEP7v7w4VYcPS1tOXe2qkzqtASuXfaM2pYfmDe/KKIcqFZ+iajetUHctthrD6v7a5PlMkf5RzBR5Wx3pmsqOmTAr28LXZqvRYrsR4+g5HM5vWJ84mD+x0qymw/Z9WxN7le8hky3/BcYFWxnwJ+epOvYcsMC5tq26pzbgh9kqAmeIwHk8R2oMrl0lsp3t61PkAdRyoOR+evPl873o/zNLxilPYbmx5E4c8hjo2hWSt5A4BI7n0Lns+h5z3UDexJpUrCrnHq14zG8a/W/n4hhjY2MXGcfzm57iu5TiK/wu/qut/xy678B1Xc+rxa3F5FOTh0pT9DwW+f+ZCyy4ugJH7iOU33BPAQ7JdG3CVuu+7W1SXimDn6sy6qNZ9p6YyOU+7xvbqx4B4GA+Y3WwIyqXFPq/wkv4yzApfzZmh/4TBWW5m/Ansjw4NflCXdLvMXoxuyb6z5z16yTPUx+WvuyP9+RyX82N5K5rdQ2gRGUi8r7K+m+fY08G67QdHe2g3X4FbTj5SSvKaHR0dNfEaO5zpLx7TarX+s5/xE512JAuG3S12v+W2/OcrP/MnVEPKE39Ke3/Qlc5/2TXHZbcSMjP6ZS2K4X+IwCwriVSH3V1qQ84JeFKkaK/4xqdwLaY851pcrCxcp3rbGwo6lw56v/4VS0cBlpZ4P0AQHUIAHNw4LWt0UzRC0csiPA57GjBHS1S2OOwj2e7FnGdE+OpVLaL6M9TjyLC5zA1DmRxit8RBz78mBLkPtGISqEzdkCg/ptnWuXEJOl/u9gzkvuNjPD/MfdxVVxXwdXQf4qpeyLntrFhnKTJhSemJt9fWpCf0UJ/YQR3Lu4ZNBpWlSi34SrIIYPkBwOIX6G8zHcmxnLfGRsbu3J1gnUJeteBNkla/V8JhZ0FRbH636GBkdZRODSd/2/FM/RM0/r9EfkTta6R/vtjyhXx9RmPv2504vt7xsaubZkcqaWJ8pLuZTX1P64cmePbwTib0Ty3FbdR46OjL8qyepAVv9IfzuRy5jnJZl3j9r9VaGqs/9wh3lRK+7/ru/93anCWKb3+9wLduQzgxs0n5Oy8W0pd3RfTdnFKu3Idp7hOUlpxv8PnEMUOa0hzjt64udzvbekNiz1FfDRxqXXqj0s8emEJTE1Wfc0VPC+YNXFkngIPTqQ+uCDx2szzi2fO3kk9TGJ3vnARSwo9cJ3TSByoSX1JEb0tlVZuXAnR8lehXInzP5q7xVzv9/zZ+mUV9N/ooN/V0J/5dt40fEfLa6ZLed10//sR9r8zvcvk57KG3e/biN8bwHy8Nbc1d4vqlxuZ+SYjwBeT3911OfKVJs9JbQLxVRmh74yPjv3l6YUz7zl+/Phc2/U04fl21BAAWob+L8fwDw/viquzdHfW35PHJ309/e2RkZEPZNl7lbnXN5rflxFVdGKF7X+K5jYkl3y5+fzf46O5T8ssvWPy6ckVrSBT8n2mZuyhVdX/ZdiB9vfSylbXmRjN/ZpJ75PG0sk6nwfF6MJy23ItmhUXRGTeGE/HzHb/JdpSe0H6iBY5qki91NTHr1xW+78Svzq8FGaa+1xLm6uxfHTVi9e4pSHTLCC2pnlNq/8IAKwvFoulA561bn+1C2FgnEpolk5bAALnUMLvuE9a8qGZEuYEcKzj3/C6rutTwvVcFbN136XBIVrqUr+UgNRG7UfnFGdLS8r7IxMeJLXg4pggoeLIO8dySTSQUH6jL44h7DXjJJB/TfJp+nfPmunlAECSnNoVYKIsJ33alWiczMXJ+Ao+lSzOtKQlaKT/LQ4FG6PuLcbI+v3wGPvl6r//ttyo7TEj7EdZ0VGt5aip947oipPPxmjTBXXi1OKpGUPsUloTY+M3he89sQ5pv9Pzh/5fbmfuQpWR682lf8n8vtLUUQOJdS7F18H2fYVnrI5NQ3FGCb9t08aBKwa25l5ayVsbFNUtB5RyItnVpDoet6H+r5AjR44U9uTGNcfUT4EC6fLpmvy5AczHX/h/IyMje7NKXU+ifsno95XCvHm57X9w2bp0+l9eE57otXSuXJbrz72kErhbFl4lD5JkG3ETNler9T+0vRk7zvy77DbKf/Nv8v5JttcrT7h+wA50l9GCaDnmO/Nc+dO6/HmEzWfRtBXiyTE+STOTT0/OxoXUJkbGfya8VGC79D9c56gk/e8w562R/W++DlKXRQAa6WPH2MRSmeujgf4jALCeAwDjFx3d8Mi3dWUWaGcPdaHo+DGhUIPjODfc58i137VMj11BSkJ6iek7zre7hEnoptiRnljdXvTmLVbYsv4WniMVuh0qqwQHxBVG5kCNwCJRD4spuGygSP3tf2T9Lys/Us8Xu/JV3b504oIq8q097fwTnRGXHLkCsgmy7JLBcOMfWYghLGtxOhIny0k6aDYsiLRkCEAj/W8lY2NjlxmN+IgdnEmr/6LpkBHu7+oSfZ+UPFYq8PSps6cOG6d+zrKRWiI0rrpprWbwnTwyud98+H9/uHPnzoGNmcxlphbwAwE/b/J5KfkTl/lvyOLkldx1eqCYE2Swvp8vVxvpLpOHFxjHdL5tVqPj+q45pdYSFdLfOP3XK89w0bQfWpidbSAH2zLVK/X69PT04+bjv1f+srnducuUoitN2fy8aSIvZVVe/70/Tfu/HP2vBUaZL/I2yFdHRkaeVwlQLMexm1euOjfGlmrUTrVP/+PtKgmZNPVlGYsnllMm/ph/pbxPmmSyrjaUwsvWWvkvO/V+O6Hp+0b/HtWsp0XksHk+J1vSTqh07X+r6yrVSP/bdN2m/WDNc+w1tv+5y94yM6fUz06JzqTQfwQA1jHHv/bJo+dcsG+eioXBBnLg3OYKasYdkybdOOFrdO0kpyVOEVPKf5mSHwDgUEhZJFp7sV292uv4i2N/uGawuv6zq8Ww9turEbgWohWJTOARWAagvvGvC6+feKyXAwCmVAqqSRlMJcsrPb/Jcx1i4I+fm29RO5Dumi2oZ/uY/5h8wzzttUWKRty/aGy2jx6YmnrAbCmsQruYuG8t7ZaK4/29yl/ZLjQO+XBfX98+Y3NdZH4+y+TwYmPhXmSqtG3+23tJWa+mWULNVF3P3pjJ3mK+vnstyr5T0BU/oBXLTqYol2LDwF1ZVXiwR6v5wuSTk/ebz/urOmEc8iFPvH3GabrIFNDPGMG92LSqF1d0IruSJZAj8wYwX9SnMn9gvr5xWc9XuNioPVlJW9FK/U917VqPOtG6mJldVkPB3geXlmlMd23/WubZftv88xE9xff4c6qspgO1mnVOnP53kCOs09j/fkcaf5LTtj+r1fer4+V0neYdAYB1ihLx3xxdvlQhR53juNUe4oYYOZfIc21f5rVacWyj/Ia3FYe2V/zz4CoA5a727Lqveh8Brjd20Rn8Ay2vtSZArbuN1NMSrr5RCEbQA9H0SPe6YL6skLBJebpwunAL9Tj+2xVOI0sij5iD379uAhseFYwzuNCCAEkq/W8Fe8bGrvPfXHNanRbJl0r0emPcf3u1okVx6ksd4PzHibiRA/8tm/93n1317969e1dGMhdnlPhLK/q9BZ6tmLc0VbdK9I2hcaD+/Z5du/7q4OHDLQ0uxg036cQViVRCG9dqY8o8u3lKUTYmTxsJlHWi8jbeDgqUyW3N7VAb9cWmzC5jUr8gJFeYEtwVaKKXYZeYPa/bMzLy5wenpx9ovo3S84q8xvWwyGHW9Pb1Ythr1pqeUk0PF/KHPJm6/7XEnOo5aJFZ4/+/6dDU1J20ijNhrJb+1235aMJOeVzruUCEZlPZ/8yZU8OzWZrprskAE5+NdG7epIeDAF0bANCet98rLV5ea+DixlSGvOa0b/s5ptZzGSupo9sJHjxTwj1U9rlWJQh0OwqlWRreQa6mpl5e9e1s3Rhb+9jZErjVrDp0IJBWbV2e4I1zvfWvOPj18zicZq07njETWL+Z3vzME71uCSr2Z1PnhnJnCuzEwelDX+y18mlG/1d+LX4Hp9R/Jnm8IPoXp55cxfXow3WNox5aR/Pj6CeffHLafPp/d1fVYWxs7EJP0zWmjvglczNXKa6/NXbJgqsuNVVRP2cyv2W+vr2lxR8jaHad3Ullz47Jk7gtVpTMcoz3b2/WTJvh+ydTmb/C/7unum3Prl37VCZztT+fgGl+rzZFOpSk/y6L2R9mKcp7l/n66qbbKKXm4tIN2TtzT0xPdn0b5WXo7X7PJZf+h+1AIZnRRXrB5OGph7pX/2MaSldQ0L++WnObYp5S2P+iRW3yNg3M0MxsN3r/vJxuNp1mC/aKn9CtNyYq+y+uB1npaV5bXzzc0Ik9gEeCFV3tXEtYhELpUfQcEnd6ge8SnU0zkh4npBO6P4m5PztfxeHdtfz7b+WldiNL8/7b22v7y93064nUtlnni5WR+v5KmkSBc+rd+quz/IeuV01RKHAdsdOspqf1fy3ceMHXYO6Vy3E2Vp6DDmdvdp9Nof+tmLzGH9Np0ro6lf6LzOtS8VemplbR+SdHXkIjd0TWfaOo8/n8owen839ycGryJfppGjVG2BvNfd1vPjWJVf/GlUltIln+Nb/7Zvv01vEpnTUJYKC84lYGaQ2zlFR/1R2lYdT4zeP3ZHkin//LJ/KHfvnkqdlcSZderTV9229JXfrvrA+Xtt8wMjLS/DPQejbWvgnqYy+0UVlS/Mo4/bd1S/vd/jX95uThyYdWW/lFVlX/I3VOJ1MUa+WHBPu/vLRm3+LmbrOnXA60dNgz4zj9kp5bAKC7AwDUt/EhsR3i0FJKYhn89nG1NogtvQ3NPFrbXt0WmgSjdr1qI8rBdMQKHNjXIWspfqFQ/shxrn1/FN81K1IO/md2AxWHtoXWv+TAQn9cWQvAuT5mJcPBdTS5NpwgMtlOKL1wWLB+HCevBUzuNTtLzJ9dfDx/M8y6SqPJfEIsZy4gz5YsGQZ60v9Pof+tcLoyoq4zLX42jf6bvz85+OSTD69NwChYJoHZubm7Gkd/+bIDU5N/cyB/6Dma9C9rfxbs0IzogXrXag+YeViNyXPbEYwKzHJdlVHuPNs3tn0KbWsBMwGdYXcbaNiGGn+FBT0zM3toauqzB6cOPV9IXmz+Drj0Xxx/rHggw3xts9csFdSJsP1CDvvHKEXXt1FjY2P+Eos7YvXf0jNzzFeemJ780lp5C430vx0VTpL+223X2jpTxZm09j973rZu8/2Fo3UEdVrchoP1TK2956htiADAOmaub9NDwlzkilNdcxit31WH2/6j8LHh7xxNp5ZWVcY4xfkx3ynuGq57cOU/vD/md2l4p/FOspGdTJRwcsXBDxRUKPHK+ezMIIXSoeRjiBPSqv8ZRf5C8bEzN9Etzy/ClFvCKxZPkP+moIHsGfxIdKbXyieN/rckAqD4eSn1f6Ggi3+8ZuWRov7pxjiZcXq+VGL9HKMr03a3/6R611gIv9hqYXTW3462oSN0J65qt++lNZblsTRtpvnchRq/dRzM5+/RZ+g55gE8lsoWKVdzy9CJBTopJIVE+2Up/f6tW7d2dS8Apem5ifpv65Vof4Uj3TG63+o201U/prDJ15qiUifS2v/GMtvRTbaU037owLaLGrQn7RJhBABWmZ88eM9hyWSn46JVrXjQ4SVZ00TJmknT7bW0Jr3FbeMrs+p5tby0+HsQ8mfbob9c/HH+1XTLswow3aznu9QYFaWhUNGQMa76e7GMVkeE5bI0+qq13FcZu77qSI/rSj6fP2Ae1Jv9rrVp6ldTbV66Bs+kP0e5zHowGKR1+nk0TYLCPEI9tBTgauDPGeBPRCopdUJIXdb0RZ6mBfPQTjY6zOhlZlMm09XDPJTin0ujQ/6EiAempu7rKWGU9dGGnT59es48n7lU9r/iMTw2ZAwBgHY+Z8UPhLuhhLuWh8eoxHVvir2GRGXKMdQ6tku76/xG8upKTxLOc52/uOMC5/h+SvhOMce7jqOY88jxmeacyD6ieS367YuPffKtePMfpTIb9FxV6OPGYjHzYLcbV5RCf50N9cobCn/ZrfE0+s8s31nLQIg46gzpobbywOTk3YqXZk4PzkDuPHxfS9tOcT+TsJwUdhbWvL3WSXoTns9mxYIpU67CCHf/Nf8M5rbmMAyg1UGAJyfvN+V7N4VsJ9ezVSITVFm7PnX6S8ugHWukEoo5U1LZLu/lwfsa6f/Sdv4ureF89+E5Cpz632onpZH+U2e8tZ2Zmfn/2HsXMMmK8v6/3jrdPZedGYZhd/Y20707XCQr4iWACGoIKhKNAhLJ36gY/IegEn8mIT6JUR+eTULyS2JuKCFIlEtAjSgXg8hPFHVZCRIk++C6P8Rldqdn9sKybpZlmUtPn3p/b/VtTp8+5/TpmZ6dnpnv53lm+vTpc6rqVNVbVe97qt6y463Dccbr0t+fuBSVfZ+LtNZUuimyb19W9oGlbTUn5wdh2+LNCGKwoJa3nCMV7cU/aNqIv5OMUtT990dtUcERz1JvvbzfCJJbf3LNtH4u/VWm1nvOK88n+b57P/3H7J+u7wmTfNdxnbgqf7YTZPfM/PtO/Be1ebPBUC20s95NURWkoqamTlqueRQl/3MdVaxdu7ZHIuiJI/9ysL0F+kSfz45lNR3OugO8y9t+By19KJ230zcTTc/8aBL5fF63yoCBKKIvbNK0z7yhbGh2VU1Np4TTbk5Ciz8P7QKrO1XA+KHmhYemnkJ717jiMBxnrTBpc8oSzuaEZOqaOG2EYf5JK/SXUfJ/TPqq1lyaZiQ92Tjjf2mzTl1Kyr9fz6LZ9XELNvZr8aTCADAraexZuaU8BbrKm62qdazCfk///us53PFe0HFNPN7z3rhU9XHV9VyddvLMFuCg5wh4WV71TOVj0mp67UmVH4rerWeOVb239cqzHU1ABgTNDqgoEyXv/aEzACppUZ50qbKHtu1szG/mfn7br+bed/IODM/qNHBaPR2rjhl1+rIzjsSV/zmQTCb7Y8u/644teF5EtWnFerKkmVZmq3/Xg6q6URntUE9fX1/Tls3Uy/eic0BKua7bEjMA/HU5KO3NwFXuTg6pn4r9eadPR4vffPKaHzOmtCuApwzIOzuyeL5d2rueWTQ+z6iAMvXLn1b6FUs1j6Ut6ZRxTmeU/M+MJ83YgvabXF/+m97mcH35b5lxBaudccb/8nfaktG//GPMED2kRconUgdstfTON0va+dfoeP8zG5y9Y447PRBo4Ym56X/Z4sgqwNFJA8fsszqFHauAt5KzTTsHhJ0/fo1yu473CEVJqa9jTi28sfduA1gTU0CaqrYE8dn6vXuMV7n9LV5T8tY5KZ/flrhvzv1s5EFM92+gsTPqp1rXr5+Sv2cuO+NIAzI0B9oppvy7Wh9dyLygGO0VL/FV1tI+DZMOryfe42bt49z5fGe+sho0rP8o1aW2trZUS8hOuX5QeH9kmjCIcl13L5FzxL5dridDrOlMtPjzYBSbnt6fTKaOSv73+AXDX/YJw52NG5TMTxzlhLeRlbEXnbFU89jKtXV0SNHyX+ZwK8h+lPw3W3/SMfvQFlEwf6Ypzvif+tPp9IaC/5nFPpaKobu0ilJNIW3XPIz9FgVLe0i3464cJxIPN9ooha6XnlvDEPv+Rp0L1q3wvuumNpzmdbJfUgB8E5cCnPJ7p0jXOuunSjg1HkGpqPxTxfO/b4pxefsrRTk5GlOkt8qpf3SNujSXO7J2+n1DF+XeO3Q/lP8GGzuttsWpJ5L3dluzBHKsuZ2VY0zXbOR/wZ8/rO1Z4jMASn4zYvUVbpvbFK/kdh203Xc9Vn1ynN6Wal9m+Vtc9u3bN85Ew1HhcmUgU9iaEY4Am0yhDJSK5WDXNbphmSBjtvnLN7j95TPWrl3biRJZHPJ/rOLklus7zfa443/NTd5OFvWjKYlaTj4Alvyg//DaUz62IkHXobmeYaJ/Y26KTT6y1nPM39QcfvN+P2omVT4/qQ4cmISi3xymZXCVJJ2z04cpulgGMusyp43sHdmGXGveWwXDTk7HDDPBC/d+vbz/fN0+UmNgW8kKrZtmDhEl94jEWVe5cdhZKR87l5c0miclt19Vt6yIThoYGBgaGxvbiRas6eSC2okamSC3YZnYtWfP00PpzFHrjDaq/bW/d6RS58nhA8u7b6KFmwVkS9dZgGgpvOuh1htzPam1U5Ou4Drt/Jp83L4sKi7DcAEDwALwwg/uO/zCAk+bajm+e69SN30C+bDEGR0d3b8xvcG+QTu1zqhCOwnzbjlaNgYAPjaRTHJUAjyTbpi5byF7POyMU3Da2Mn1yqq8HGCCxptXT/gQU/W+0EHe1kmb/uU2lpN8+JHE98E41ya1vlg+PoOa3NwxIjN11tuS1zLLZUw5VvSEfJ5XX0zUby5FA4DjONbHQl7yOBUl/xZRhPuWnS7HxeUGsQwUC8yePXv2Dg1mslxvm7+iQ4A32z7HzrJZ8mOpFtGqmdWynOofBqbMAbB0sV3i96uWbYT8yf/fVg1u47SYoZh/c8JVh0PD9i2vUVqnl3ReLAKSnNxAXKesiqOIvHq+eUZlCfNQUF7XpmPh947Wx7iu5KdpS+z6yfR+haVMTWX9+vVriLirSg4C856N67pHZlenzHfjlK/UvYtFYVq51PJY8m1S8nayrvwXuhSVWWht4Zj3ExRT/ltDmzHSTj9aN71U2N5yZUci9c7lMJZqlTcMRBjrwAAAwDKB2f1WvIaR1g0NZn4LOdY8xs34QeZ467vJ6JcvCnPSEsZJ0Nmxen+igyNqpJnLlPbGrCMnLjcZGtk38ozIUCzP51rT6RsGB89Hy9M8Uo7zKrvNYgwl4OjExMSR2fVR/GCsdpKop9NJfmip5XHxDTAdiTdgp9OWW/uvF9n0NGP4odgKqVYfXRZ6GN66wwAAADi2vDQ5+bAx6nBlqxPl2/rEc04a6c19fX09yyFfarYWU83fzuz555+3SwD2c1R85Xj0wjkECqwTHLBN4lLvLRx1adW2ViH5QIrtspqmGQAkzGxk3s/UkdNaSnbCPps7YLcbCjxQszWaCt4yjZSzWWEWQBPH7fTumHm//9Ch2e2KMTw6uk2C2B0ka/44DelrBgcH1y25/ojl+WP0S8LZC9YS6zpyr+bH27uJqA/z1ObMiRznv22Y86H12VOu0ridvWFw8NcXed0N3r5SVW9j2TJ9Vz05gwEAALAUECX0KCu+P3BKs/8cUbq3q+uvlsfAdmb6fdDOFjVb482OvAygn6lMK6PIvD9jIQe2kfmgWm+7pWaTXpt+DbG6wD/dv7JEw5MPLvO2JtfFZyPzfib/rTO8VMvITthn0+sK31WVLyFxFqbVanX20Pr0R9Dyz53M6swGaZcui5P38mUuMpGXUffXgtocf5xSvr0J0jcutbErkdlBcfolov70uvTZC95PRHzOR4MTqw62CHv27BnTpB73l2NQ/6+JtCbnnzLHZXoXb90Nbov9O4W1zLjP26dS8HI/GAAAAEsCNuoLDTSRHzoxnf5d5FqT8p75cW/nE0F7iuiDC9UpxsKo9qVYRtYRUyJJN0ZNdabqQv1BM+N3jXo63kCLVg4NDp613GRoVza7RfI8G/sGh/42M5C5EK3PnEg5bepm2y7F7GPmJBMmr25h61sjzqCV6J1D6fSnllYfTT+Oe23CoQ+3tELIqqnbNWpelB3/bXH7WVE6NzjHqX/HNpctPPaBAQAAsBgZ2TOyRQZXT8VUMqS/pRs2DqR/D+1DEzoYHX9gLPn+B8dyFoB967BhcPByUrwp1rM49LqlVj6rVq3qak+mviz1/qx44zoezzN/p5lpcPKTOyTcXMwadcVC5tcCLQPOiXDE3i7LbpXmaPX1jen076ANm0W7oDLtG9OZmyUf3xxTJoyZnpt3/pF9I08zUwNyRdeeOJj5c7VElntMK3dLA1rLZRsHBo6ZIdAqpicOZC62Xutjpu+cBWlzWshHzZQxXxO5ONRAm3VBRzL1rfXr1w+gBQIwAAAAmtaHGjbXFZXM6L9SZ5QgR392KJ358lJcb6lU8Dqv+Viq9uL4+BbDfIQD4vXGx8V870uStm8O5m2at/XxIEr/ZRsGM3fpHrXH0c5tEnHanxb/cXHXInpbZm3m1Ln2OZn1mbNLA50F7X9EQXxzV0fnjyTf3xlVH7j65ANjY2OHmpmO4eeeO8il/f25Tt1kossl/85byAFD3TTOQ7yTJn+TDKiPctw4iTqJ9M3Sht2XTqc3tbzSLTIxtHZteqEVWsmrc5yM+qHIxOU1/QWH5T1tGXluZPdc4yblXhdUnkHtUsFQrelTUr7fHBgYOGmx90fSpgxLBm+PI1vWwKV04rb53BHBGoGkn7hgKJ3+QnsyNaocuscuU4vTRkkCNzV1Bg6Fy3nVed1S5XnIKL41qD+N6P/fmHIS/71xIPMRm/+LaSxVt2x4eY37FgtwlgPAMmD36OjdMlh6otyJx+hzbY90WVLptw2lN/xrXpmbs9msnap8zO3stjPMrc117du372ATxxSxzs0V64OhezDzDSL1Pn8cQcf2rdvGTOaeyVzuA0163kR6TfoUJ0HnkVa/Jt/Pkzi6op497Fi+tDtJ+vLQ6tVvFaX1wGwSs2rVqk7HUd91VCJ1YjozLsrDsCIeZqN2Sly7jDLD5Lq7p7U+KIOow82ub3bQ3J5MXkiKrpKv51hFIm4dKXoqN/80D9VEwiX7BnAT1UmLNc5ph++TwfmVItNfO9byaCLG2eS7rpnYdbWijHxeyu0P48gszRgCfj3B6kJp+x5kxbdNG/Nwkw04WuqUHax3JpPJHsd1u3bt2fNUo4GITHxTOaleSafdE3xYnnNY6ttOUbp3kaN255l3T09PH5A2wcpEvqnt63GZXuoxF2jSV8rX80nNyARFZHb5K+fN3zXFEDY6+ujGwcwDWtPbAut+cB91QZuT+MnQYOaOfJ5vzO7LblML8y44JfWgR8rn0CzjN4bVlzWp6+K0RXLdqR3JtocGBgbeLfV5ZzPqcWZ1Ju2k1HlM9FZSfAGR0xea73XS6Gj1hczazJvszI45JyxmP95qSpzL/HeO4t+RNrsnbj9rtwZUjrqB0vyJEzlzqzH5u6Q92dFkmU+IzHeZHtNJ09RLLh0aeX5kfzPHUjVl00I+AI7FuG+xgM0ZAFgmDA0Ovl7Gdt8TsU9YZyclz/8+LcfXOpSvsV5tFW0XHehh+fIj6ZR3HH7ppWz3oe5caUs04+uztUeB16LAF753GNPlqvZObuNOR46V1j1kqEei6ZV4euWi42Wg3kdK98m5NRLXOjkv35XJZ1VG4ppshhIog6fnvc9efMSaSycnpqdOKG7TNHsKb9WYHglVNoNaYeYxNvzX08p8KabCoiWfU2q1WuO0q02iqr5KKzrTKD5Dynpd4Y0ZR4yYaKa4Q+Hyh/WCzx/blc0+0Ohgt5D3Kcl7Dh/BFdPBNs8PW+/ixGpM6t5eUmafDPgPMPFB49JBrfKHTD5xxFGT4xNaH60ajedTPdzBfVLR17DLQ1KfXi73nSV58Sr7djiwrvuetUpGrAdyxffvzo5cNB8KxlAm8zYZJX0zKD3kzR72GiPUY/Lbv+WJt4hyuFvqac6jlCasrOXb2uxbwl7Jh165x8pRn6S+lzWdIMe9ks8PSTneETedoqD9OWn6VFX5BbYjfPtwduQDzTbedCZTPxUFpT+oDhOF1N/qKRxHpT49ZUg9oRX/1Fhlm3n/tFKHJicnjyQSCZMaT6X4OO6T9mmlUU4fkenX0h7JM62SZ18pdUIUI1pJxCsl6D5mO9tAtVsDmcjskV2jI8c1+mwb0xnX2z7UtEfFfJ6UgfRhKb/9EveYnNorSuN+Of+c0nxA7j/kTqtDnOAjiampo36ZKLS9ur1PWuY1okAOSYvwckm7NQi/Rp6rK678+yrlY8PZ3ec2SybsDCMnqX4sz9IZ2F55E0kBBjq2Tlf5OyLrPzJ52q5eUrvVC2oyTh9lP0v9VGeH/Lkq1akdt4ccp4tc1SN5bx21icyo460ckdQBiUfkiwYk9pXWsDrl5tfP1sCUWZWxbfezhfapjvx7fjisXPMPU+x+0RrJ4horBgcHV0qbsEny63RPP7HBjg0C+/+wuhAq/4V/B6VE/njX2IhtX3KzrRMbBzfcI5JxcWD99JxgYz6+ayz7mVYac0l7+aciW9dFWigo+FTRS71t5ykrdfoJ+frfivgZ6fvGVF7td5PuEdd1C+Mhabd6k4W2iEW+tbRXqs+wtFFMq6RtkPNqpdTXPqmv/dL+dUlYto51WmOf3HONtFl/P+sxpXYeqdRRDqkThp8ZHh152UKWhX2RpAfVqG3D6/X/OTd/cpMMazAAAABaxAiQ3vAP0tH/vgoYR0V9D/pNBrtGaToiA2i7j3GOS0qT9ALaDogLHRiphJxql8OEnboYFlbQOM/73U7/feHoi+tnu9VUjSIhSmiM552cyM3dAGAHmkPpzLfsOr9G892mwRh+Ur5sl/w+KGGUB7EpUd66rKFEjtfIAEGUfLVGlKOeenkZFW/Yb0G/S3qeknL5uijm3xcFanucga+drptyEj+fS72b7ffZ1LvK9cxHphW/OpvNDs/X4CSRViNl5bbR57P1xK45lcFdXmTOKnM9quTUMOpeuefzu7IjVzViANCaPhWZV4XxHt++q8kGgOKAM/P/yfPdqUvKciN1JU79n2u9s74c5Lk7GlGI7bKc3u6eF+arDs+X/Mvx5DSbc0Umnmyy0vSHMkj/u2bJvzXKSHjj0ltNVvLR7iiguGAINIUX6lYhIvvZruZQP6by04MNKOKB/bME+vsNy791oMhK2mN6iuzWs1R0qCgKYMKQ6REl3xrY++V6awy2y/p6VZPbzrB7Davdkr6vsTIP6VxuW6Ozx6wBQGt1cb06bNzWMwDYdt0uqZEUvmah+rB68i/5du3useyfzdYAQNp5pK5sMD8znG0BA0BajRZmWdTJm6llYgBYnksAbrm2vSvXXZkGWzaTd3m+e+fI1vvuPzcf96sm/N7jaHO8c/z4Yi++kd27c2rzZgN1vnHcLH/CSaszZBDw+npT+6jObzJc0oWBBFFhMEEz85QrHxQzrBjfdWdnZ+LQoUPzZv2k+bOMGhmFXqOU81/2LWGDz98uCpd1qnSOcuqneK5lGvX8VFv+p8v/0+1QOiUD0MzazCvqTfnUdsZHk9LYzOeN+l5wcsbmyuzo6PC8tWlqZHJIbfiixPkns3y+9sLAnuJNyax8J9XQOmI9y7xsFsOjI18ZSqffIDF8pNHynUv9b+C7FoW+qxFDZW9bWy+1mDzEyTvj8jXZseYq/5ZdoyPXDw1mzhW1/F3NeF5pp+wU7B7v/Ctva6mb0D+UvzuOMzf/LVMTf6Xa2i9TRSU9/vNaYx8pq2S+pnh+5krH84TUpP6wke/aziwg+iNJyR9xW3t+w+DgpbtHR78Ru82hmOlqQY9mtl3P5DLvdZL8iCopngvRh0WFpbU6rpljqaA4W2V5Bi1AnwUDQIvRoU84/SXtfo9V9ZTcoyHHcb7P9/3N+L29e4VJ9/dNhk7rOpYEvE4I/d1HJtOX44fvPSzXHFDEWcPqZ8RqO/P0kz/c+tO9avPmPFT98A5p9dTqS1ek2h8qKnCLp61yppzUYs334dHR7aK4XEtK//W8ytJCyK8qrk3P6+mjdQuxZCxaLFjln1l9XAasX533yKYm/oHbOz5Enrdzx6Ac+xebLLlZukYPqnXet4IthO52ujsPqfgGANa6lxaZ/BvDf7FrbORf5in4/IuT4x/o7ujst4bqxVQ3rQ+IOfUTzz13IDOQudrR/PUo/ySLlYKDYUUNvYSS8V2NEWBRjbn2jTydWZ95d0LzfUrP+ANolf5fyqMLI+PlybI0AEwM/+KJRLpvq+uaC6KlJ0ozbVBrLS8qLV8W5/qqhbmziM+3kGxdd7foy9wpg9oqC3FpoGsb55CQaq+Pvq/eRCTP6fJvHBAfB8dn85Hs+nBSp9p7NRXTwCqp3vArr96tHr5nq3HpW66be/CxCy87BDGv5jk7yFiVeavTXuiQzvJUkdDpZuyrvtXuAVSggyj2VPsqew9Xr9cNCitgKlkin8onmt1v+tPnf+amGgGy2c8MDWZeKXn+W0F5HWQp958LzKuA9Hsz3N9a+fO/cI3h7WzlyTNtnAOarkrQVJ1/oiXnjDH1/TO4qpedOs8ao37Ua5Ij65+vTgfV+dJFk6L+f3TXWPZfj4mRSORy40D603YHDg7oAihGvVUB+af8dbo6//oaGoyXbq9bJvM5oLZv1UYz76G0ukke9PKA5RChslCvfeLovKpb1+yf29aYEkha9yy0/Ks6slBp+wt79fMnd41m/2Y+y9g6T3X7+t7eu6L7LtJ0wQLJf2BfqCLKRMpyzkbqkbGRezcMpDdrTZuPgfyrhvp/wzuln1hj/R3Mtv9Xxhxpdl9daZxa1QiwZ+T7Q4ODb1esvy4P0d9S/T+rrmbZIMKXqLRGOQTVaQ7J6+XA8twGcPNmk0zqT0pDZio9m3eucuXPShf7Whnvb8rze1kaubxodOZ374iJvb+TLz7lCdM3fzpoPnXlHIffX/q9u62t8Fe+bUYcuPpcgNZDEaJEsfywekSrypONp1ny7BdSFSZXb5ZCFHZ98VOONhDT+xxH3ZlKte1543fvve/ch+9+V+aWW9qh+ns6pOdH9k/kc7+q2HxR8tj4q3/NcYBTIn81pKD7KUB8KDguFVDNPd7PdSKfaKoBICh9Yc/cJIw7qv5/ye+vhj5/WD7GyCvlb7pUyBKMGVk/Kv++lGdz7rOjI680bN5rzwWFFdQeeH+TjmRyamoqFyPTe+o+a4z6QUHPSjHrX516WPzj7VJabzhWyn8Zie+fjatuDWvy69XboPyjiPyTE9YAkGpkwBBX/ufbCDCcHblCmq6PcqEeR8hNA+0TzbGu2WVRjnEaGlAzUe9CyH9UnQmUf+adrqveMpydX+W/jF1GMTw68g5j+G8Ka9yPpfxTeF8YVSZ5u0VfEyisyTbmL1XR2ee8yT9F9fkzx5NS+PdL//AO6Sd+Ka/4rYZ572z7fzevjzakpFB9WV0M2szw6OhWd0q9Voaq32+F/r+iltDcDQD15ES10C4AceQfBoAlzsTlH30ikdBfqyikXrOa96/GPXbJNXRFJ/W91Z/ZrHXm/pI3tIpksjccb1zKtzko+455Jq1VCjVVX89+gwOp9b09ZQdtlfvZu0knewwJyhsXz4RTk1YuvK23b+WLf55wvbuAeq6vxFU6x+zfiZ6K57h2V1Eu3Vd9j9e4UB2n9J3t8v+dmunr6czxP3v9w/f+6S//x5dWQv0vYp3byWDuSsmjiyRPn1G+quc36QSdqzIlccj+zRywtzPXNwz7wzIp0zUf1mB/upiD971uouLyXjuFVv7y9fKtJn851E4XvtcwVzspk7+tbPjDE9O5jcMjI+/NZrOP2uy109zZzZ8rvz+hODismqZupknI2R0h6j2/W5reHlTPONwGWV2POLwOVrU8s8gvufCAlMs1+aw6UwZsTyyAWJpdY7uvknR8vuBkM2YZhz5jRH0uOUjrWrVqVWo2clNP/o9JXmWzn+P89C9Lnf1GaWeEhtI8G/mvF5bjNNxO9R4z+Y8hZwGydFiy9tojE+Ovtm8yj7E85HaNjvwxG/dNhtU2Nd/yH5RfHEPOyqND07wp3sNj2U9L33xV2cA1H/IfHlZh6dM2+fhjzk29TPqsd4is3W9tHLa/yLn51xrFD/As+n/XcRuaAWA4uM9RMepxqzHy3Mju4ezut0jDa8t17zHv/wPC13M0AASoBXXby4XCn6dh8g8DwDKgM5H4pGjFkzNvzTnABFc+7/3zXu875w9L+c7V3OOLKyos7xv+qusDrvGE1ZFMqhNWrKgxcVGYiTDKJOm7h3x/XstadFhUfa0n3VT1DD7LJXnSTT7x9YVlZwtU0qY4rRVft2JFx8/f8J17N5/1wB09MAFUBtH3u1n1StspSeu3o2qKt7fT8E0p8zegNStcPPfVTAnzTVvjkDAr5wyPJ5us/JMKecYwmWgeeRnUftol/hXJ78eJQvKUqs1cRNX2Q3+H7heDmfNsPWA/aFy+Wk3nTpbB3BuGR0f+Zd++fQf9CbN7mMvv5+aZPyx5ng3rxCtzd2ZkMRdri0ZjB5V8u4TwpCjaR1XQ9FwKrgeVekTRhiLlbWKour4pn+nQ0+vbLS4/9j9HXzzZbonUjO0m56L0PGs987N6vx0khpVzTblTcB1SVDuTo5JPmrq01p2NJC6O/B/LMdSuvXuth+mLXFedKxF/he2OCFGKYYPyH9Y+hbVZLuvGBtTGPCODzlulrB8XretIs+WfQraUC22vK10r7xSZ+PhEbkrajOyf2Wn5CyUQu8bGtuzK7j5T1NL3SMKeaLb8s68OUIBcKV/fFVDHJ7XmfJP75n91p9WZXmW7mfJfrSjanQR4q1X65eAVoqi+2s72GN63L+tPmN3pYNfIyDtcly+1bWcj/X/iaKLheuR/B1cVV7l8Fo9b6Pyz2eznX5wYf5mMuT4miX96Pvv/uvJv5jgDgKrT5u8HWu2Nehz5Xy4s+20A275w/V/lXPdPmqtWxGnFYt6j5nq9Uqf0r1Sre7pCeg1VmsVQb9PdqBbGpxH4Z06QZyZErDwJSFdl0U5I3HV7j+oVgEwysGb1yUe2bLsDTgOrjYJDg4PnSCv+HlKFtZdDcZ0RzbaxtwMPKdrDEo8opDwmf3bAMSKD4d0S8fB0Yfbc6P5mdfF2263ju3puqv88nBPF4ko1hz2M4+R3ZiBzgaPV1XJ8PpX3qJ9LHjMfsNsGSm49ylp9byKXe2yWWxmmNqbT75R68H6J8zypEz0RZTibbX4SacFRapMcnypx/JI83Ul2GY8qbofX3ow6FrxNfeGt2jY5eohd995de/Zsb8Uh5KpVq7q6Ozo+KGVwJdt8Kskizf357bKfg/Lb7mk2l4h87Y0TltSH39BKXxpDpn9gjUwLkWd2m8/2ZPJiSefbJSXncGnNbRN7cuvzwubfocKWa0YNy8XPEPHP2aWdL+bGH5+DsqwzqzNplVSnOiQyQeqXWNEpysqE4n67R3yzn8XzTONSz54i5u+wMvdJo/tkq6pV0kedYfsoebIL5flO0USJZvZLNaOh4uySw7bMpTwKfRQXtrez/ZQadkxuWBRlK0PzNpbIrM+cbfsJif/XtY7vKDRiK395Ht4hT/aoUeYRPqK3jLwwcng2dVbahfOJ6QNSXy8otd1hdSxnsuq4RgysdltIKd8z69ZfZe4szVJYdGMuKduzpGwvlbx7s4w7NumQpSRzrMuTdmxg23ypQ8Ny/HMZmz/jKrUjm83umFWdXJs5NZGka+unwewdzmavWeB8TgwNZm60/ivqpndq4mONblcJA8AipO+O63sOT5mfsDHpwFdL5DvBPqUy1Aef9+011ZFODlCmqd4Iyxd08PUdyYR6zeCA0kRQbYNbxodzudxVj1142U5kSG2DKYPRAUqZs6T+vFLqux2Ipq0DRqPsfvOcKFlMrR9GU6qRMjAmOS6sJbdK5xFRWY7IIOOQiFt58E8AABNXSURBVIsMmOmQ1N3n7A4OrPmAdD57p6enD6T2pY4u8FvXBccqLp1O6vWST+eK/J8m+TQkOdvPhu3gVpcH45KHecn7I2wVOK32a1ZjRonyIUq4IdpOWdrb7Ly0RpPu7u4zHKOs08iXFxV1XmeKU/pt2p7aNTpybtPq3XGZLtWp1lDCpKXDtnVuHRu9lhxRglitlPrWx3ave6mHUtcSHlOhZEchn4ydlaCsYUmVDUsy8CH+mTLmqRfGx59uZKu2VpDFdDp9iuT/+eTQ60T93GRnNamCwUie36MAFd/kybNryokkWiXfKiZZu2OK3PesUu7OPNFOPaoPLXWZK+zDPWhOkud+FTn65ZI5J0ktGZC8sPXITr1Pqep6Y2dF5OXIKkKHpW7ZAfMB+X2vKPh7JL/Hpo3J6kk9pp5Xh49h/hW2F+zs7OxPar1BWlk7o22dS2qtVlbhsluMcR8VlhMUZEKrmRme2qPI5+RhrSJ7UD7HpE3PkjL/d1qp7fQC7ZilArigytP69evXtSUSZ0kf80rpp07hsrGEqc+2Dao4nNIyZCrkgSarh5K0Dzwu7cg4F/uow3L9EZEdKy/WcfBz8vsB+V7oo5K53IEJrY/u27dvcqGNItYouKK9/RxH6TdIX2F38pE6rWx9bq9yGGfrMfO4nD8o1+2X9mJMnvvZstIn/e7uWRqGo/qwzpROnS417mxH8Ssk423aBsplIeVwZDg7slHNr1F9MaOHVq9eyW1tp0uenS519WVSb6U+F5xe237POl/UXF2njS7Oejos9fig3HdATu7XyuzJM43J4GxM5fNZ81LygMj3EbWY5koAGADmm45brn/XZN79eu0b6mb7hYzj57ORc0G/eY6lhTh51Uq1urvL7/WzelqWz4tu0MYDQS/evcF5oqwOU4V7zq2ylZDH0ywHT19SHG5zqfEezrX3e6/xxX3YVfpjPzz/otshDfE7KunsC29op6amEm1tbYU3HzKgyKNzb34++/J4vJUUU0lfaiHTZZW83Nqczufz2nVdbfMptS9lloFBKTEwMNCTct0uJirI4rTWotzwpJ1mK4M9+xYas5ti1J0Wlq/ZkhK5THjb52UiE3X7qKWaD1b5tm1gIpEwpXo82ULKXqUsloh8LXh/Wy5ryc8c2nkAA8AcSH7hH+/JG7441n4vUbp3o/fU/R7kiDDkHp/m3ZlKqtcMrl/EhVx6yGbaYSLCMoq+OJr9n6tHrrhiEhIBAAAAAAAAWGpoZEGRRJv+KBEdqt6yz6dcl4+9TvjCvGMRR2/RX+UcUEU446PgbQXDwvXs/5E54fiSIxya3Z+KuncO4caOR1V7/ms0jUG/RYSlSX0ws6H3/5zz7bv7IREAAAAAAAAAGACWKBPv+19jqYTzB1WKvl+p97swVyHKv99NZ6DCHuBqOOztdMEYUb4uINwAd5bHtberEzo7Fcv1XG15qAN7gomaO0CBocZ9UV91TwP+CWq8nkbcWw63Ia/UTG90kvp7r/3WPRsgFQAAAAAAAAAYAJYok7sO3uFo/ZWqPfer9rLn6v34q9TLiOvCrvdu0qqC9vnnmr3tQz8911m9d2hln3UWJsdcmWRQMB7U3cuIPDsI+jbpDtpQlGt3OIyMI+ieiOv84RCXnse/KXhYulT1hI2ae6qOS/cZtSmV0t+FEQAAAAAAAACwlIAPAB9dX7pp5cT4xH8ZZp/y539FH+aKzuMFr+6b7aAw2bMLQNjWfNH3rj2uR5248oSCASBWKXPMa1o1rDi1eBZhydedU5Purz7+tkvHIBkAAAAAAACAxQ5mAPg4+ltXHexIJd+vajyZe+fbh2mSnvOxprUHhelZv17rEKDuvclEQmX6jp9R/hVHvlEPVMy9b8eVCp7jH/SGXwXcHxQfBdwbK7yQNASFVW9dQtgzVs8gOKm9I3HfL//HTZ2QDAAAAAAAAAAMAEvRCHD51VvbEslP1CqNESvJmYO1TQ5RPMMU09jxBCvvJ57Qp5KOLs179819J8+SgaB5+zWfauZaqnM/+c6Tx2khh6wVoIg1BBSwZiDwnFLR6xB86a6Z7x/wjJ642JinfvzEXuwKAAAAAAAAAIABYKkyufv5fxRF+ktVJ6Pe6oe9tQ96iR/2gr+heGrD7evsVCu7VgRsOxjgAd8bP3sT5rkuaNq8NyzvbIXKsgXf71XLECg4Hn9a/OF446gJS1WHRSo4Pm+6Kzs1RKRXFZwIPjE+fuBqtXmzgUQAAAAAAAAAFjvwARDBqhtu6DrUnv+ecd0zWj2tCccp7Pnf5iRmXANUKfjlQy4tD+DSJQG+BuZ6vy+cwj0lg4L3/qKRIcIhQMD9tWniGcNEleFj5uKq+2vg6tSXrjOk9rObe+0P33JZFpIAAAAAAAAAWApgBkAEz1999dFUG11Cjs6G6ahVyqr/k2JcF3ZOhVwXeA0VnP4VlH+r0nrWtXPNkoEg7Z5KavDMqeJGBFyjaJPH8SDVOCj0qdbsiZG915TiZ655KO+WheW023i8z6SqwqLqrzVp4coqAQ5KY+U5vLMM+KjL6lIo/wAAAAAAAIClBGYAxKDz3z73msmp/HeZTW+A9jg75uq93nO+v6tbndK/sviWO0gLp1kmMu69YdfFvn8u+dj0NOaNUe/Z+uaLv4aaDwAAAAAAAFhKYAZADMbf/3tPdiT1uyW7JmvXr8/yj+Z4Xel8ezKpTrR7/kcpwVFOBcsaeNA1/jDDwqGQmQBxDQ+kgu8Pexbm6DTWfRbPNb77XeY/gPIPAAAAAAAAWIpgBkADdNxyw7sm87kvi/6YqlGga7Iy4BwF6bdRr7+jw9Wa1Onr1qruthQKJyiHPPldb5IBExnFfO0jb7rkL5CDAAAAAAAAgKUIZgA0wMQVV9/dkUxdyVrlq7efK6uYnj3+Kr97fmPPsff30LC859mjwRaPh07oU13tqZmYKWA7fAr4jWZxTfkcLVRYFB6Wqg5Llb+zJyeJotPF6m8e2bLtL1HLAQAAAAAAAEsVzACYBZ23fe53Jqanb1SGE/GzuPwO2vsZt4h814oyu7q7S528amXA1VTytF9LWApm7glw+x9wrz8+71VRcxY48L7o/ODAHPE+I8VKb9QzukR//8Mf/PfHsd0fAAAAAAAAAAYAUMOKWz932Xh++s54RoD6On3o71Vb5RXp6WhXp61doxytVfDeeGHfg1RrvyKuAr7X+03N07WzeY6wcDig2rMUn/qLrW+65NOo0QAAAAAAAAAYAEAoHbd+9p2T0/k75bBr/mKpVpLbEwn1yvVrVcpJlFRa/3v9eoaGotd7u6qAyXNZ4XbPyZD4g84VoymHW7XTf+31dYwf5FPpy6FxJW1BcQffTFw7J6FyCam8HHzikTdd/BnUZAAAAAAAAAAMAKAuK2757HkTrnsXM69sko7v14ArJBxdcPrX2Zaq/ql0f/gE/li6d2P3B+n0vhfvhfN+jb5Z8ce535/G0ndJU44MX/XImy65FTUYAAAAAAAAAAMAiE3XF6/fNGHMfxg2Q0WlszRt3+uKvkYJDrimxhgwM/1fa61evna16u1oL17G1ZdVReEpVfb6JPRH6TNClJMeN6yqJFNIWCps1z7yBRgQvqrdrS8orPIzcYzr5MLD8vU3t5x/ybdRcwEAAAAAAAAwAICGWXH7jf25/PS/5133vJofucGc9l1vD09d3a9Wdq0InvEftZReqeDl9EqFeQQMX1Uw2+X9UXGSqu8aICxunyGiXvqZ1DPsqku2vvniHaixAAAAAAAAgOUGtgFsEi9d/uED0/SLX0smnH8WvdNUaaWNmlmoWss9adVKdYJV/lXwNnuKqjYNrCzj9293Vw6baeaeyrW+c/772JOuqq32VO02fN40sSdO9sVZSTf50uxPv6p2TeCZyl8Vd3lSQUj6Hxw/On4ulH8AAAAAAADAcgUzAOaBzltu+O2JfO6zoo12zSmLySr/J6g13d3V0+7LU/ln+7a+HnHDWsi0xI8jb1j9761btm1WmzfnUTsBAAAAAAAAMACAprLi9htPm8rn7nTz7unVC9Q5ZsGQOnGlKP893bWFVOVdLyLMutHVc7vXSPXhOnGHrAeo8u5fLy5uKM2saa/LfMWjWO8PAAAAAAAAADAAzCs33dTZ3jb915P56Q+JnptopFDstP/V3V3FrfUaVNHDdsBvZMf9IJW7EVNBlHmCZhF/mKsCFR7HNyYmclf919sv24+KCAAAAAAAAAAwABwTVtx2/Zsnp83NhnlD3QKREnlZf9HhX1z/ejPHpT3z61wfVvBRPvlmFO3yLv/RM/mrf5v5FuW7UIWcj/O8NPPLYaP4mq0/2Har2rzZoPYBAAAAAAAAAAwAx5S+O67veSmn/nzKdT8kmZ6q1XpZJRyn4O3/+I6OMO17bscUQ9MPi7fRe6N2KGh2uIVVBGSV/W8YV139w7dctBc1DgAAAAAAAABgAFhQum/557PHzfQ/GWPO8p5vSyTUpjX9qqutrbkRchNKmeexpsSfRhAeBNEwu+aarY9s+wbe+gMAAAAAAAAADACtw7XXJjo3rLp8ys1fZ9issUr/pjWrVSrhBDsL5DolV7Vw3nNvOSzm+vcF3e9/JV9w968aS5c3/qC9/aNqY9hzzRgHjrLiv5146fnP/PgdV42jYgEAAAAAAAAADAAtiV0WwCp1zaa1/b/nKN1X0GsLXvHLqnft/2KhldfTl9fjc0kfnjlfVpqLwcl1VNwUnz1hzBx71fzqsNmjiVd+k0CJvcfFX7mS8OrQZ46D0u5JfSkhxfQWw+HSkytPKKwpR0bdPjXlbn78bZeOoSYBAAAAAAAAAAwAi4Jzvn13v3b0x0mr3xVlugc5EgyTyilWd+en85v/862/8TRyBAAAAAAAAABgAFiUnPnNr65pa09eTVp/hJj7ahRgFe4zz1ugcbzrB90fdo8/3DA/fRxxbk5+CouK/x2i+P8tFH8AAAAAAAAAgAFgybDpq1/t6utLfVBK58Ok+NRwFTlO0XLE73F21a+3476KMAeoCDMD1w2PiPa7xnxRsb4Bnv0BAAAAAAAAAAaApcu11ybe+CuvOl+K6SpD6kIyqrO44L5UbBzy7p2q9sfzKdz2o2YPvfAwuHTMpfvsteQ5rwLOea9VIfdxSByK80rTo8rwzePjB+6Gcz8AAAAAAAAAgAFgWXHuQ/et09pcRlq/R/TkM8gYXVHZg+b9h83d9+negXP1K874PM73o9YH+GsU1/msibfg4G+npOsrbt69E9P8AQAAAAAAAAAGACCc/eBXT0qkku/SRBcZawxgTi10JWJurDaxIkNMO0Txvz+v+J7H3nTJ4yhZAAAAAAAAAIABAIRgHQemOlLnS0G+Vf7eKH8Doowngkq2Zpv9ktJO7FfO/dp99f3sW+JPvtkGlZn/5cDsrAMiI/8PyrVbmemh6emp7zz2nz8dVps3G5QiAAAAAAAAAMAAABrh2mv12a97+VAymTxblPvXEakzlKbTlPUdoGaW3vsVe78iH8dtYND58nIELn7PaVJPs6EnRcP/kVbTj/7iF+bpHZddlkNBAQAAAAAAAAAMAKD5RoHE6855xUmO45xKpE8V1fxkKfUh0dDXicbfz0Q9xKyDNwTw7SRQc14dkb9D8nWvYt7tGt6pWP+MmXfs2XP46ZErrphEAQAAAAAAAAAADABgYQ0DOrNhQ6q3t7e9u9v0EVGvS6pXG5WSapHQgqvchFJOnowxWtv/bo5IH2FWhycmJg4p9eL4j5/YO4lp/AAAAAAAAAAAAAAAAAAAAAAA0AJoZAEAAAAAAAAAAAADAAAAAAAAAAAAAGAAAAAAAAAAAAAAAAwAAAAAAAAAAAAAgAEAAAAAAAAAAAAAMAAAAAAAAAAAAAAABgAAAAAAAAAAAADAAAAAAAAAAAAAAAAYAAAAAAAAAAAAABgAAAAAAAAAAAAAAAMAAAAAAAAAAAAAYAAAAAAAAAAAAAAADAAAAAAAAAAAAACAAQAAAAAAAAAAAAAwAAAAAAAAAAAAAAAGAAAAAAAAAAAAAMAAAAAAAAAAAAAAwAAAAAAAAAAAAAAAGAAAAAAAAAAAAAAAAwAAAAAAAAAAAABgAAAAAAAAAAAAAAAMAAAAAAAAAAAAAIABAAAAAAAAAAAAADAAAAAAAAAAAAAAAAYAAAAAAAAAAAAABgAAAAAAAAAAAADAAAAAAAAAAAAAAAAYAAAAAAAAAAAAAAADAAAAAAAAAAAAAGAAAAAAAAAAAAAAAAwAAAAAAAAAAAAAgAEAAAAAAAAAAAAAMAAAAAAAAAAAAAAABgAAAAAAAAAAAAAGAAAAAAAAAAAAAMAAAAAAAAAAAAAAABgAAAAAAAAAAAAAAAMAAAAAAAAAAAAAYAAAAAAAAAAAAAAADAAAAAAAAAAAAACAAQAAAAAAAAAAAAAwAAAAAAAAAAAAADAAAAAAAAAAAAAAAAYAAAAAAAAAAAAAwAAAAAAAAAAAAAAAGAAAAAAAAAAAAAAAAwAAAAAAAAAAAABgAAAAAAAAAAAAAAAMAAAAAAAAAAAAAIABAAAAAAAAAAAAgAEAAAAAAAAAAAAAMAAAAAAAAAAAAAAABgAAAAAAAAAAAAC0Pv8vAAD//5ffIlv6oyBLAAAAAElFTkSuQmCC;imageBorder=default;" vertex="1" parent="1">
          <mxGeometry x="719.47" y="-817" width="150.04" height="40" as="geometry" />
        </mxCell>
        <mxCell id="su54caKYM3iyM2nyogv_-60" value="" style="group;container=0;" vertex="1" connectable="0" parent="1">
          <mxGeometry x="755" y="-760" width="50.120000000000005" height="57.64852490606316" as="geometry" />
        </mxCell>
        <mxCell id="su54caKYM3iyM2nyogv_-61" value="" style="shape=image;verticalLabelPosition=bottom;labelBackgroundColor=default;verticalAlign=top;aspect=fixed;imageAspect=0;image=https://upload.wikimedia.org/wikipedia/commons/thumb/b/ba/Database-postgres.svg/1448px-Database-postgres.svg.png;container=0;" vertex="1" parent="su54caKYM3iyM2nyogv_-60">
          <mxGeometry x="15.99735211811253" width="36.12264788188748" height="51.04120428447361" as="geometry" />
        </mxCell>
        <mxCell id="su54caKYM3iyM2nyogv_-62" value="" style="sketch=0;aspect=fixed;html=1;points=[];align=center;image;fontSize=12;image=img/lib/mscae/Docker.svg;fillColor=none;container=0;" vertex="1" parent="su54caKYM3iyM2nyogv_-60">
          <mxGeometry y="36.67969348659003" width="25.571745633503813" height="20.968831419473126" as="geometry" />
        </mxCell>
        <mxCell id="su54caKYM3iyM2nyogv_-68" style="rounded=0;orthogonalLoop=1;jettySize=auto;html=1;entryX=-0.038;entryY=0.232;entryDx=0;entryDy=0;entryPerimeter=0;flowAnimation=1;" edge="1" parent="1" source="su54caKYM3iyM2nyogv_-33" target="su54caKYM3iyM2nyogv_-41">
          <mxGeometry relative="1" as="geometry" />
        </mxCell>
        <mxCell id="su54caKYM3iyM2nyogv_-74" value="" style="ellipse;whiteSpace=wrap;html=1;aspect=fixed;" vertex="1" parent="1">
          <mxGeometry x="331" y="-769.25" width="17.25" height="17.25" as="geometry" />
        </mxCell>
        <mxCell id="su54caKYM3iyM2nyogv_-77" value="" style="endArrow=classic;html=1;rounded=0;entryX=0;entryY=0.75;entryDx=0;entryDy=0;flowAnimation=1;" edge="1" parent="1" target="su54caKYM3iyM2nyogv_-33">
          <mxGeometry width="50" height="50" relative="1" as="geometry">
            <mxPoint x="348.25" y="-769.25" as="sourcePoint" />
            <mxPoint x="398.25" y="-819.25" as="targetPoint" />
          </mxGeometry>
        </mxCell>
        <mxCell id="su54caKYM3iyM2nyogv_-78" value="" style="endArrow=classic;html=1;rounded=0;entryX=0.107;entryY=0.612;entryDx=0;entryDy=0;exitX=1;exitY=0.5;exitDx=0;exitDy=0;entryPerimeter=0;flowAnimation=1;" edge="1" parent="1" source="su54caKYM3iyM2nyogv_-74" target="su54caKYM3iyM2nyogv_-22">
          <mxGeometry width="50" height="50" relative="1" as="geometry">
            <mxPoint x="358.25" y="-759.25" as="sourcePoint" />
            <mxPoint x="452" y="-856" as="targetPoint" />
          </mxGeometry>
        </mxCell>
        <mxCell id="su54caKYM3iyM2nyogv_-79" value="" style="group;container=0;" vertex="1" connectable="0" parent="1">
          <mxGeometry x="499" y="-1019" width="50.120000000000005" height="57.64852490606316" as="geometry" />
        </mxCell>
        <mxCell id="su54caKYM3iyM2nyogv_-80" value="" style="shape=image;verticalLabelPosition=bottom;labelBackgroundColor=default;verticalAlign=top;aspect=fixed;imageAspect=0;image=https://upload.wikimedia.org/wikipedia/commons/thumb/b/ba/Database-postgres.svg/1448px-Database-postgres.svg.png;container=0;" vertex="1" parent="su54caKYM3iyM2nyogv_-79">
          <mxGeometry x="15.99735211811253" width="36.12264788188748" height="51.04120428447361" as="geometry" />
        </mxCell>
        <mxCell id="su54caKYM3iyM2nyogv_-81" value="" style="sketch=0;aspect=fixed;html=1;points=[];align=center;image;fontSize=12;image=img/lib/mscae/Docker.svg;fillColor=none;container=0;" vertex="1" parent="su54caKYM3iyM2nyogv_-79">
          <mxGeometry y="36.67969348659003" width="25.571745633503813" height="20.968831419473126" as="geometry" />
        </mxCell>
        <mxCell id="su54caKYM3iyM2nyogv_-82" style="edgeStyle=orthogonalEdgeStyle;rounded=0;orthogonalLoop=1;jettySize=auto;html=1;exitX=0.5;exitY=0;exitDx=0;exitDy=0;entryX=0.831;entryY=0.635;entryDx=0;entryDy=0;entryPerimeter=0;shape=link;flowAnimation=1;" edge="1" parent="1" source="su54caKYM3iyM2nyogv_-33" target="su54caKYM3iyM2nyogv_-81">
          <mxGeometry relative="1" as="geometry" />
        </mxCell>
        <mxCell id="su54caKYM3iyM2nyogv_-104" style="edgeStyle=orthogonalEdgeStyle;rounded=0;orthogonalLoop=1;jettySize=auto;html=1;exitX=0.25;exitY=1;exitDx=0;exitDy=0;entryX=0;entryY=0;entryDx=0;entryDy=0;flowAnimation=1;" edge="1" parent="1" source="su54caKYM3iyM2nyogv_-92" target="su54caKYM3iyM2nyogv_-94">
          <mxGeometry relative="1" as="geometry" />
        </mxCell>
        <mxCell id="su54caKYM3iyM2nyogv_-92" value="Command REST API" style="rounded=0;whiteSpace=wrap;html=1;" vertex="1" parent="1">
          <mxGeometry x="125.02999999999999" y="97.00016393442621" width="268.25" height="33.44262295081967" as="geometry" />
        </mxCell>
        <mxCell id="su54caKYM3iyM2nyogv_-93" value="" style="shape=cylinder3;whiteSpace=wrap;html=1;boundedLbl=1;backgroundOutline=1;size=15;rotation=90;" vertex="1" parent="1">
          <mxGeometry x="237.07000000000002" y="49.67999999999995" width="35.75" height="268.28" as="geometry" />
        </mxCell>
        <mxCell id="su54caKYM3iyM2nyogv_-94" value="Command Bus" style="text;html=1;align=center;verticalAlign=middle;whiteSpace=wrap;rounded=0;" vertex="1" parent="1">
          <mxGeometry x="190.67000000000002" y="167.22967213114748" width="130" height="33.44262295081967" as="geometry" />
        </mxCell>
        <mxCell id="su54caKYM3iyM2nyogv_-95" value="Command Handler" style="rounded=0;whiteSpace=wrap;html=1;" vertex="1" parent="1">
          <mxGeometry x="121.55" y="235.34442622950814" width="268.25" height="33.44262295081967" as="geometry" />
        </mxCell>
        <mxCell id="su54caKYM3iyM2nyogv_-96" value="Aggregat&lt;div&gt;Command Procession&lt;/div&gt;" style="rounded=0;whiteSpace=wrap;html=1;" vertex="1" parent="1">
          <mxGeometry x="145.03" y="303.50836065573765" width="168.25" height="44.59016393442623" as="geometry" />
        </mxCell>
        <mxCell id="su54caKYM3iyM2nyogv_-108" style="rounded=0;orthogonalLoop=1;jettySize=auto;html=1;exitX=0.87;exitY=0.021;exitDx=0;exitDy=0;entryX=0.086;entryY=0.273;entryDx=0;entryDy=0;entryPerimeter=0;exitPerimeter=0;shape=link;flowAnimation=1;" edge="1" parent="1" source="su54caKYM3iyM2nyogv_-98" target="su54caKYM3iyM2nyogv_-107">
          <mxGeometry relative="1" as="geometry">
            <mxPoint x="360.19000000000005" y="392.53999999999996" as="sourcePoint" />
            <mxPoint x="361.0000000000002" y="334.3000000000002" as="targetPoint" />
          </mxGeometry>
        </mxCell>
        <mxCell id="su54caKYM3iyM2nyogv_-109" value="Events" style="edgeLabel;html=1;align=center;verticalAlign=middle;resizable=0;points=[];" vertex="1" connectable="0" parent="su54caKYM3iyM2nyogv_-108">
          <mxGeometry x="-0.1101" y="-2" relative="1" as="geometry">
            <mxPoint as="offset" />
          </mxGeometry>
        </mxCell>
        <mxCell id="su54caKYM3iyM2nyogv_-98" value="Event Sourcing Handler" style="rounded=0;whiteSpace=wrap;html=1;" vertex="1" parent="1">
          <mxGeometry x="144.55" y="392.53999999999996" width="247.52" height="33.44" as="geometry" />
        </mxCell>
        <mxCell id="su54caKYM3iyM2nyogv_-111" value="" style="edgeStyle=orthogonalEdgeStyle;rounded=0;orthogonalLoop=1;jettySize=auto;html=1;flowAnimation=1;" edge="1" parent="1" source="su54caKYM3iyM2nyogv_-99" target="su54caKYM3iyM2nyogv_-100">
          <mxGeometry relative="1" as="geometry" />
        </mxCell>
        <mxCell id="su54caKYM3iyM2nyogv_-99" value="Event Store Repository" style="rounded=0;whiteSpace=wrap;html=1;" vertex="1" parent="1">
          <mxGeometry x="123.82000000000001" y="462.0044262295081" width="268.25" height="33.44262295081967" as="geometry" />
        </mxCell>
        <mxCell id="su54caKYM3iyM2nyogv_-100" value="&lt;b&gt;Event Store&lt;/b&gt;" style="image;aspect=fixed;perimeter=ellipsePerimeter;html=1;align=center;shadow=0;dashed=0;spacingTop=3;image=img/lib/active_directory/database.svg;" vertex="1" parent="1">
          <mxGeometry x="190.67" y="570" width="107.91" height="79.85" as="geometry" />
        </mxCell>
        <mxCell id="su54caKYM3iyM2nyogv_-101" value="&lt;b&gt;Write side&lt;/b&gt;" style="text;html=1;align=center;verticalAlign=middle;whiteSpace=wrap;rounded=0;" vertex="1" parent="1">
          <mxGeometry x="90" y="41" width="60" height="30" as="geometry" />
        </mxCell>
        <mxCell id="su54caKYM3iyM2nyogv_-103" style="edgeStyle=orthogonalEdgeStyle;rounded=0;orthogonalLoop=1;jettySize=auto;html=1;exitX=1;exitY=1;exitDx=0;exitDy=-15;exitPerimeter=0;entryX=0.054;entryY=0.057;entryDx=0;entryDy=0;entryPerimeter=0;flowAnimation=1;" edge="1" parent="1" source="su54caKYM3iyM2nyogv_-93" target="su54caKYM3iyM2nyogv_-95">
          <mxGeometry relative="1" as="geometry" />
        </mxCell>
        <mxCell id="su54caKYM3iyM2nyogv_-105" style="edgeStyle=orthogonalEdgeStyle;rounded=0;orthogonalLoop=1;jettySize=auto;html=1;exitX=0.039;exitY=0.894;exitDx=0;exitDy=0;exitPerimeter=0;entryX=0.034;entryY=0.157;entryDx=0;entryDy=0;entryPerimeter=0;flowAnimation=1;" edge="1" parent="1" source="su54caKYM3iyM2nyogv_-95" target="su54caKYM3iyM2nyogv_-99">
          <mxGeometry relative="1" as="geometry">
            <mxPoint x="130.18" y="290.51" as="sourcePoint" />
            <mxPoint x="130.18" y="326.51" as="targetPoint" />
          </mxGeometry>
        </mxCell>
        <mxCell id="su54caKYM3iyM2nyogv_-106" style="rounded=0;orthogonalLoop=1;jettySize=auto;html=1;entryX=0.654;entryY=0.061;entryDx=0;entryDy=0;entryPerimeter=0;endArrow=diamond;endFill=1;" edge="1" parent="1" target="su54caKYM3iyM2nyogv_-96">
          <mxGeometry relative="1" as="geometry">
            <mxPoint x="255" y="270" as="sourcePoint" />
            <mxPoint x="180.72" y="303.79" as="targetPoint" />
          </mxGeometry>
        </mxCell>
        <mxCell id="su54caKYM3iyM2nyogv_-107" value="Event Bus" style="html=1;outlineConnect=0;fillColor=#bac8d3;strokeColor=#23445d;gradientDirection=north;strokeWidth=2;shape=mxgraph.networks.bus;gradientDirection=north;perimeter=backbonePerimeter;backboneSize=20;" vertex="1" parent="1">
          <mxGeometry x="339" y="315.8" width="249" height="20" as="geometry" />
        </mxCell>
        <mxCell id="su54caKYM3iyM2nyogv_-110" style="rounded=0;orthogonalLoop=1;jettySize=auto;html=1;exitX=0.807;exitY=1.133;exitDx=0;exitDy=0;exitPerimeter=0;" edge="1" parent="1" source="su54caKYM3iyM2nyogv_-95" target="su54caKYM3iyM2nyogv_-107">
          <mxGeometry relative="1" as="geometry">
            <mxPoint x="371" y="269" as="sourcePoint" />
            <mxPoint x="371" y="320" as="targetPoint" />
          </mxGeometry>
        </mxCell>
        <mxCell id="su54caKYM3iyM2nyogv_-113" value="" style="shape=datastore;whiteSpace=wrap;html=1;" vertex="1" parent="1">
          <mxGeometry x="599" y="579.9300000000001" width="60" height="60" as="geometry" />
        </mxCell>
      </root>
    </mxGraphModel>
  </diagram>
</mxfile>
